<svg width="28" height="18" viewBox="0 0 28 18" fill="none" xmlns="http://www.w3.org/2000/svg">
<path fill-rule="evenodd" clip-rule="evenodd" d="M27.125 8.99999C27.125 8.75135 27.0262 8.5129 26.8504 8.33708C26.6746 8.16127 26.4361 8.06249 26.1875 8.06249H4.07562L9.97625 2.16374C10.0634 2.07658 10.1326 1.9731 10.1797 1.85921C10.2269 1.74533 10.2512 1.62326 10.2512 1.49999C10.2512 1.37672 10.2269 1.25466 10.1797 1.14078C10.1326 1.02689 10.0634 0.923409 9.97625 0.836244C9.88908 0.749079 9.7856 0.679936 9.67171 0.632763C9.55783 0.58559 9.43577 0.56131 9.3125 0.56131C9.18923 0.56131 9.06716 0.58559 8.95328 0.632763C8.83939 0.679936 8.73591 0.749079 8.64875 0.836244L1.14875 8.33624C1.06144 8.42333 0.992173 8.52678 0.944911 8.64068C0.897649 8.75458 0.873322 8.87668 0.873322 8.99999C0.873322 9.12331 0.897649 9.24541 0.944911 9.35931C0.992173 9.4732 1.06144 9.57666 1.14875 9.66374L8.64875 17.1637C8.73591 17.2509 8.83939 17.3201 8.95328 17.3672C9.06716 17.4144 9.18923 17.4387 9.3125 17.4387C9.43577 17.4387 9.55783 17.4144 9.67171 17.3672C9.7856 17.3201 9.88908 17.2509 9.97625 17.1637C10.0634 17.0766 10.1326 16.9731 10.1797 16.8592C10.2269 16.7453 10.2512 16.6233 10.2512 16.5C10.2512 16.3767 10.2269 16.2547 10.1797 16.1408C10.1326 16.0269 10.0634 15.9234 9.97625 15.8362L4.07562 9.93749H26.1875C26.4361 9.93749 26.6746 9.83872 26.8504 9.66291C27.0262 9.48709 27.125 9.24863 27.125 8.99999Z" fill="black"/>
</svg>
