<svg width="16" height="17" viewBox="0 0 16 17" fill="none" xmlns="http://www.w3.org/2000/svg">
<path d="M0.809326 7.96655C0.395113 7.96655 0.0593262 8.30234 0.0593262 8.71655C0.0593262 9.13077 0.395113 9.46655 0.809326 9.46655V7.96655ZM14.8093 8.71655L15.3397 9.24688C15.6325 8.95399 15.6325 8.47912 15.3397 8.18622L14.8093 8.71655ZM8.33966 1.18622C8.04676 0.893329 7.57189 0.893329 7.279 1.18622C6.9861 1.47912 6.9861 1.95399 7.279 2.24688L8.33966 1.18622ZM7.279 15.1862C6.9861 15.4791 6.9861 15.954 7.279 16.2469C7.57189 16.5398 8.04676 16.5398 8.33966 16.2469L7.279 15.1862ZM0.809326 9.46655H14.8093V7.96655H0.809326V9.46655ZM7.279 2.24688L14.279 9.24688L15.3397 8.18622L8.33966 1.18622L7.279 2.24688ZM14.279 8.18622L7.279 15.1862L8.33966 16.2469L15.3397 9.24688L14.279 8.18622Z" fill="white"/>
</svg>
