<svg width="40" height="29" viewBox="0 0 40 29" fill="none" xmlns="http://www.w3.org/2000/svg">
<path d="M26.6062 15C25.55 15 24.5562 14.4375 24.0187 13.5375L20 6.875L15.9875 13.5375C15.4437 14.4438 14.45 15.0063 13.3937 15.0063C13.1125 15.0063 12.8312 14.9688 12.5625 14.8875L3.99996 12.4375V23.5625C3.99996 24.4813 4.62496 25.2813 5.51246 25.5L19.025 28.8813C19.6625 29.0375 20.3312 29.0375 20.9625 28.8813L34.4875 25.5C35.375 25.275 36 24.475 36 23.5625V12.4375L27.4375 14.8813C27.1687 14.9625 26.8875 15 26.6062 15ZM39.8937 7.9875L36.675 1.5625C36.4812 1.175 36.0625 0.949998 35.6312 1.00625L20 3L25.7312 12.5062C25.9687 12.9 26.4437 13.0875 26.8875 12.9625L39.2562 9.43125C39.875 9.25 40.175 8.5625 39.8937 7.9875ZM3.32496 1.5625L0.10621 7.9875C-0.18129 8.5625 0.12496 9.25 0.73746 9.425L13.1062 12.9562C13.55 13.0813 14.025 12.8937 14.2625 12.5L20 3L4.36246 1.00625C3.93121 0.956248 3.51871 1.175 3.32496 1.5625Z" fill="white"/>
</svg>
