<svg width="37" height="38" viewBox="0 0 37 38" fill="none" xmlns="http://www.w3.org/2000/svg">
<path d="M33.5204 19.5241L19.6454 3.69075C19.0612 3.02258 17.9388 3.02258 17.3545 3.69075L3.47953 19.5241C3.27981 19.7514 3.14872 20.0335 3.1022 20.3359C3.05567 20.6384 3.09571 20.9482 3.21744 21.2277C3.46411 21.7993 4.01603 22.1667 4.62499 22.1667H7.70832V33.25C7.70832 33.6699 7.87074 34.0727 8.15986 34.3696C8.44898 34.6665 8.84111 34.8333 9.24999 34.8333H13.875C14.2839 34.8333 14.676 34.6665 14.9651 34.3696C15.2542 34.0727 15.4167 33.6699 15.4167 33.25V26.9167H21.5833V33.25C21.5833 33.6699 21.7457 34.0727 22.0349 34.3696C22.324 34.6665 22.7161 34.8333 23.125 34.8333H27.75C28.1589 34.8333 28.551 34.6665 28.8401 34.3696C29.1292 34.0727 29.2917 33.6699 29.2917 33.25V22.1667H32.375C32.6736 22.168 32.966 22.08 33.2168 21.9136C33.4675 21.7471 33.6657 21.5093 33.7871 21.2292C33.9086 20.949 33.948 20.6387 33.9006 20.3359C33.8533 20.0331 33.7212 19.7511 33.5204 19.5241V19.5241Z" fill="white"/>
</svg>
