<svg width="160" height="160" viewBox="0 0 160 160" fill="none" xmlns="http://www.w3.org/2000/svg">
<circle cx="80" cy="80" r="75.5" stroke="#FF8500" stroke-width="9"/>
<path d="M79.852 36.035L81 36C85.443 35.9993 89.72 37.6886 92.9633 40.7253C96.2067 43.7619 98.1735 47.9185 98.465 52.352L98.5 53.5V60.5H105.5C108.285 60.5 110.955 61.6062 112.925 63.5754C114.894 65.5445 116 68.2152 116 71V113C116 115.785 114.894 118.455 112.925 120.425C110.955 122.394 108.285 123.5 105.5 123.5H56.5C53.7152 123.5 51.0445 122.394 49.0754 120.425C47.1062 118.455 46 115.785 46 113V71C46 68.2152 47.1062 65.5445 49.0754 63.5754C51.0445 61.6062 53.7152 60.5 56.5 60.5H63.5V53.5C63.4993 49.057 65.1886 44.78 68.2253 41.5367C71.2619 38.2933 75.4185 36.3265 79.852 36.035ZM105.5 67.5H56.5C55.5717 67.5 54.6815 67.8687 54.0251 68.5251C53.3687 69.1815 53 70.0717 53 71V113C53 113.928 53.3687 114.818 54.0251 115.475C54.6815 116.131 55.5717 116.5 56.5 116.5H105.5C106.428 116.5 107.318 116.131 107.975 115.475C108.631 114.818 109 113.928 109 113V71C109 70.0717 108.631 69.1815 107.975 68.5251C107.318 67.8687 106.428 67.5 105.5 67.5ZM81 85C82.8565 85 84.637 85.7375 85.9497 87.0503C87.2625 88.363 88 90.1435 88 92C88 93.8565 87.2625 95.637 85.9497 96.9497C84.637 98.2625 82.8565 99 81 99C79.1435 99 77.363 98.2625 76.0503 96.9497C74.7375 95.637 74 93.8565 74 92C74 90.1435 74.7375 88.363 76.0503 87.0503C77.363 85.7375 79.1435 85 81 85ZM82.008 43.049L81 43C78.3898 43.0001 75.8733 43.9724 73.9411 45.7273C72.0089 47.4822 70.7996 49.8939 70.549 52.492L70.5 53.5V60.5H91.5V53.5C91.4999 50.8898 90.5276 48.3733 88.7727 46.4411C87.0178 44.5089 84.6061 43.2996 82.008 43.049V43.049Z" fill="#FF8500"/>
</svg>
