<svg width="38" height="26" viewBox="0 0 38 26" fill="none" xmlns="http://www.w3.org/2000/svg">
<path d="M37.6141 14.5797C37.3328 11.4227 36.8696 10.8078 36.6946 10.5766C36.2922 10.0422 35.6485 9.69297 34.9672 9.32656C34.9287 9.30619 34.8954 9.27715 34.87 9.24172C34.8447 9.20629 34.8279 9.16545 34.821 9.12242C34.8141 9.07939 34.8173 9.03535 34.8303 8.99376C34.8434 8.95218 34.8659 8.9142 34.8961 8.88281C35.0223 8.75487 35.1192 8.60112 35.1803 8.43214C35.2414 8.26316 35.2652 8.08295 35.25 7.90391C35.2206 7.58641 35.073 7.29156 34.8364 7.07782C34.5998 6.86409 34.2915 6.74708 33.9727 6.75H32.7539C32.7017 6.75031 32.6495 6.7537 32.5977 6.76016C32.5621 6.74472 32.5252 6.73244 32.4875 6.72344C31.7656 5.19766 30.7774 3.10859 28.7289 2.08906C25.6906 0.578125 20.0938 0.5 19 0.5C17.9063 0.5 12.3094 0.578125 9.27502 2.08672C7.22659 3.10625 6.23831 5.19531 5.51643 6.72109L5.51018 6.73359C5.47418 6.73866 5.43882 6.74756 5.40471 6.76016C5.35287 6.7537 5.3007 6.75031 5.24846 6.75H4.02737C3.70853 6.74708 3.40024 6.86409 3.16364 7.07782C2.92704 7.29156 2.77941 7.58641 2.75002 7.90391C2.73615 8.08253 2.761 8.26205 2.82289 8.43019C2.88478 8.59833 2.98224 8.75112 3.10862 8.87813C3.13885 8.90951 3.16138 8.94749 3.17442 8.98908C3.18746 9.03066 3.19066 9.0747 3.18376 9.11773C3.17687 9.16077 3.16007 9.20161 3.13469 9.23703C3.10931 9.27246 3.07605 9.3015 3.03752 9.32187C2.35627 9.69063 1.7094 10.0398 1.31018 10.5719C1.13518 10.8062 0.672679 11.418 0.390648 14.575C0.234398 16.3516 0.210961 18.1906 0.333617 19.375C0.590648 21.8359 1.07268 23.3234 1.09299 23.3852C1.16696 23.6098 1.30312 23.8088 1.48566 23.9591C1.66819 24.1094 1.88963 24.2049 2.12424 24.2344V24.25C2.12424 24.5815 2.25594 24.8995 2.49036 25.1339C2.72478 25.3683 3.04272 25.5 3.37424 25.5H7.74924C8.08076 25.5 8.39871 25.3683 8.63313 25.1339C8.86755 24.8995 8.99924 24.5815 8.99924 24.25C9.6719 24.25 10.1399 24.1297 10.636 24.0016C11.3522 23.8086 12.0843 23.6802 12.8235 23.618C15.2071 23.3906 17.5774 23.3125 19 23.3125C20.3938 23.3125 22.8688 23.3906 25.2563 23.618C25.9984 23.6803 26.7333 23.8092 27.4524 24.0031C27.9274 24.125 28.3781 24.2375 29.0024 24.2492C29.0024 24.5807 29.1341 24.8987 29.3685 25.1331C29.6029 25.3675 29.9208 25.4992 30.2524 25.4992H34.6274C34.9589 25.4992 35.2768 25.3675 35.5113 25.1331C35.7457 24.8987 35.8774 24.5807 35.8774 24.2492V24.2398C36.1125 24.2109 36.3346 24.1157 36.5178 23.9653C36.7009 23.815 36.8375 23.6157 36.9117 23.3906C36.9321 23.3289 37.4141 21.8414 37.6711 19.3805C37.7938 18.1953 37.7719 16.3594 37.6141 14.5797ZM7.7758 7.78984C8.4008 6.46172 9.11565 4.95859 10.3883 4.325C12.2274 3.40938 16.0391 2.99687 19 2.99687C21.961 2.99687 25.7727 3.40625 27.6117 4.325C28.8844 4.95859 29.5961 6.4625 30.2242 7.78984L30.3024 7.95937C30.3481 8.05589 30.3682 8.1625 30.361 8.26903C30.3538 8.37557 30.3194 8.47847 30.2611 8.56794C30.2028 8.65741 30.1226 8.73045 30.0281 8.7801C29.9335 8.82975 29.8279 8.85435 29.7211 8.85156C27.125 8.78125 21.6563 8.55625 19 8.55625C16.3438 8.55625 10.875 8.78672 8.27502 8.85703C8.16828 8.85982 8.0626 8.83522 7.96807 8.78557C7.87354 8.73592 7.7933 8.66288 7.73501 8.57341C7.67672 8.48394 7.64233 8.38103 7.63511 8.2745C7.62789 8.16796 7.64809 8.06136 7.69377 7.96484C7.72112 7.90703 7.75002 7.84844 7.7758 7.78984ZM8.70784 14.0109C7.36393 14.1727 6.01143 14.2525 4.65784 14.25C3.82971 14.25 2.9758 14.0156 2.81721 13.2781C2.70862 12.782 2.72034 12.5031 2.77893 12.2227C2.82815 11.9844 2.90627 11.8109 3.2969 11.75C4.31252 11.5938 4.88049 11.7898 6.54299 12.2797C7.64534 12.6039 8.44065 13.0359 8.89377 13.3781C9.12112 13.5469 9.00002 13.9875 8.70784 14.0109ZM26.0031 20.4172C24.975 20.5344 22.9188 20.4914 19.0235 20.4914C15.1281 20.4914 13.0727 20.5344 12.0446 20.4172C10.9836 20.2992 9.63127 19.2961 10.5547 18.4023C11.1696 17.8133 12.6039 17.3727 14.5141 17.125C16.4242 16.8773 17.2328 16.75 19.0156 16.75C20.7985 16.75 21.525 16.8281 23.5172 17.1258C25.5094 17.4234 27.0149 17.8695 27.4766 18.4031C28.3188 19.3594 27.0633 20.293 26.0031 20.4219V20.4172ZM35.1828 13.2773C35.0266 14.018 34.1672 14.2492 33.3422 14.2492C31.9627 14.2495 30.5843 14.1697 29.2141 14.0102C28.975 13.9875 28.8641 13.568 29.1063 13.3773C29.5524 13.0266 30.3563 12.6031 31.4571 12.2789C33.1196 11.7891 34.0781 11.593 34.9016 11.7563C35.1024 11.7961 35.2086 12.0117 35.2211 12.1469C35.2762 12.5232 35.2633 12.9064 35.1828 13.2781V13.2773Z" fill="white"/>
</svg>
