<svg width="25" height="26" viewBox="0 0 25 26" fill="none" xmlns="http://www.w3.org/2000/svg">
<path d="M4.87501 16.75C5.96887 16.7438 7.02097 16.3292 7.82501 15.5875L15.65 20.0625C15.5503 20.4078 15.4998 20.7655 15.5 21.125C15.492 22.1394 15.8337 23.1256 16.4677 23.9176C17.1017 24.7095 17.9893 25.2588 18.9808 25.473C19.9724 25.6871 21.0076 25.5531 21.9119 25.0934C22.8162 24.6337 23.5345 23.8764 23.9459 22.9491C24.3572 22.0218 24.4364 20.981 24.1703 20.0021C23.9041 19.0232 23.3087 18.1659 22.4844 17.5746C21.6601 16.9832 20.6573 16.694 19.6447 16.7555C18.6321 16.8171 17.6716 17.2257 16.925 17.9125L9.10001 13.4375C9.19444 13.1294 9.24494 12.8096 9.25001 12.4875L16.9375 8.08748C17.6801 8.75853 18.6308 9.15384 19.6303 9.2071C20.6297 9.26037 21.6171 8.96836 22.4268 8.38004C23.2365 7.79172 23.8192 6.94288 24.0774 5.97588C24.3355 5.00887 24.2533 3.98252 23.8445 3.06895C23.4357 2.15538 22.7252 1.41016 21.8321 0.958263C20.9391 0.50637 19.9178 0.375291 18.9396 0.58701C17.9614 0.798729 17.0857 1.34037 16.4595 2.12109C15.8332 2.90181 15.4945 3.87413 15.5 4.87498C15.5042 5.23411 15.5546 5.59121 15.65 5.93748L8.53751 9.99998C8.12539 9.36242 7.55447 8.84308 6.88086 8.49298C6.20725 8.14289 5.45413 7.9741 4.69554 8.00321C3.93694 8.03232 3.19897 8.25832 2.55417 8.659C1.90937 9.05968 1.37992 9.62124 1.01787 10.2885C0.655821 10.9558 0.473629 11.7057 0.489202 12.4647C0.504775 13.2237 0.717578 13.9656 1.10669 14.6175C1.49581 15.2693 2.04785 15.8087 2.70854 16.1826C3.36924 16.5565 4.11585 16.752 4.87501 16.75ZM19.875 19.25C20.2458 19.25 20.6084 19.3599 20.9167 19.566C21.225 19.772 21.4654 20.0648 21.6073 20.4074C21.7492 20.7501 21.7863 21.1271 21.714 21.4908C21.6416 21.8545 21.4631 22.1886 21.2008 22.4508C20.9386 22.713 20.6045 22.8916 20.2408 22.964C19.8771 23.0363 19.5001 22.9992 19.1575 22.8573C18.8149 22.7153 18.522 22.475 18.316 22.1667C18.11 21.8583 18 21.4958 18 21.125C18 20.6277 18.1975 20.1508 18.5492 19.7992C18.9008 19.4475 19.3777 19.25 19.875 19.25ZM19.875 2.99998C20.2458 2.99998 20.6084 3.10995 20.9167 3.31597C21.225 3.522 21.4654 3.81484 21.6073 4.15745C21.7492 4.50006 21.7863 4.87706 21.714 5.24077C21.6416 5.60449 21.4631 5.93858 21.2008 6.2008C20.9386 6.46303 20.6045 6.6416 20.2408 6.71395C19.8771 6.7863 19.5001 6.74917 19.1575 6.60725C18.8149 6.46534 18.522 6.22502 18.316 5.91667C18.11 5.60833 18 5.24582 18 4.87498C18 4.3777 18.1975 3.90078 18.5492 3.54915C18.9008 3.19752 19.3777 2.99998 19.875 2.99998ZM4.87501 10.5C5.24585 10.5 5.60836 10.6099 5.9167 10.816C6.22504 11.022 6.46537 11.3148 6.60728 11.6574C6.74919 12.0001 6.78633 12.3771 6.71398 12.7408C6.64163 13.1045 6.46306 13.4386 6.20083 13.7008C5.93861 13.963 5.60451 14.1416 5.2408 14.214C4.87709 14.2863 4.50009 14.2492 4.15747 14.1073C3.81486 13.9653 3.52203 13.725 3.316 13.4167C3.10997 13.1083 3.00001 12.7458 3.00001 12.375C3.00001 11.8777 3.19755 11.4008 3.54918 11.0492C3.90081 10.6975 4.37772 10.5 4.87501 10.5Z" fill="#FF8500"/>
</svg>
