<svg width="29" height="29" viewBox="0 0 29 29" fill="none" xmlns="http://www.w3.org/2000/svg">
<path d="M17 3.58625C17 2.71 16.29 2 15.4137 2H13.5875C12.71 2 12 2.71 12 3.58625C12 4.30875 11.505 4.92875 10.8312 5.19375C10.725 5.23625 10.6188 5.28125 10.515 5.32625C9.85125 5.61375 9.0625 5.52625 8.55 5.015C8.25255 4.71776 7.84925 4.5508 7.42875 4.5508C7.00825 4.5508 6.60495 4.71776 6.3075 5.015L5.015 6.3075C4.71776 6.60495 4.5508 7.00825 4.5508 7.42875C4.5508 7.84925 4.71776 8.25255 5.015 8.55C5.5275 9.0625 5.615 9.85 5.325 10.515C5.27944 10.6197 5.23568 10.7251 5.19375 10.8312C4.92875 11.505 4.30875 12 3.58625 12C2.71 12 2 12.71 2 13.5863V15.4137C2 16.29 2.71 17 3.58625 17C4.30875 17 4.92875 17.495 5.19375 18.1688C5.23625 18.275 5.28125 18.3812 5.325 18.485C5.61375 19.1487 5.52625 19.9375 5.015 20.45C4.71776 20.7474 4.5508 21.1507 4.5508 21.5712C4.5508 21.9918 4.71776 22.3951 5.015 22.6925L6.3075 23.985C6.60495 24.2822 7.00825 24.4492 7.42875 24.4492C7.84925 24.4492 8.25255 24.2822 8.55 23.985C9.0625 23.4725 9.85 23.385 10.515 23.6738C10.6188 23.72 10.725 23.7637 10.8312 23.8062C11.505 24.0712 12 24.6913 12 25.4138C12 26.29 12.71 27 13.5863 27H15.4137C16.29 27 17 26.29 17 25.4138C17 24.6913 17.495 24.0713 18.1688 23.805C18.275 23.7638 18.3812 23.72 18.485 23.675C19.1487 23.385 19.9375 23.4737 20.4488 23.985C20.5961 24.1324 20.7709 24.2493 20.9634 24.329C21.1559 24.4088 21.3623 24.4498 21.5706 24.4498C21.779 24.4498 21.9853 24.4088 22.1778 24.329C22.3703 24.2493 22.5452 24.1324 22.6925 23.985L23.985 22.6925C24.2822 22.3951 24.4492 21.9918 24.4492 21.5712C24.4492 21.1507 24.2822 20.7474 23.985 20.45C23.4725 19.9375 23.385 19.15 23.6738 18.485C23.72 18.3812 23.7637 18.275 23.8062 18.1688C24.0712 17.495 24.6913 17 25.4138 17C26.29 17 27 16.29 27 15.4137V13.5875C27 12.7113 26.29 12.0013 25.4138 12.0013C24.6913 12.0013 24.0713 11.5062 23.805 10.8325C23.7631 10.7263 23.7194 10.6209 23.6738 10.5162C23.3863 9.8525 23.4737 9.06375 23.985 8.55125C24.2822 8.2538 24.4492 7.8505 24.4492 7.43C24.4492 7.0095 24.2822 6.6062 23.985 6.30875L22.6925 5.01625C22.3951 4.71901 21.9918 4.55205 21.5712 4.55205C21.1507 4.55205 20.7474 4.71901 20.45 5.01625C19.9375 5.52875 19.15 5.61625 18.485 5.3275C18.3804 5.28151 18.2749 5.23734 18.1688 5.195C17.495 4.92875 17 4.30875 17 3.5875V3.58625Z" stroke="white" stroke-width="2.5"/>
<path d="M19.5 14.5C19.5 15.8261 18.9732 17.0979 18.0355 18.0355C17.0979 18.9732 15.8261 19.5 14.5 19.5C13.1739 19.5 11.9021 18.9732 10.9645 18.0355C10.0268 17.0979 9.5 15.8261 9.5 14.5C9.5 13.1739 10.0268 11.9021 10.9645 10.9645C11.9021 10.0268 13.1739 9.5 14.5 9.5C15.8261 9.5 17.0979 10.0268 18.0355 10.9645C18.9732 11.9021 19.5 13.1739 19.5 14.5V14.5Z" stroke="white" stroke-width="2.5"/>
</svg>
