<svg width="13" height="23" viewBox="0 0 13 23" fill="none" xmlns="http://www.w3.org/2000/svg">
<path d="M6.625 9.875C3.7875 9.1375 2.875 8.375 2.875 7.1875C2.875 5.825 4.1375 4.875 6.25 4.875C8.025 4.875 8.9125 5.55 9.2375 6.625C9.3875 7.125 9.8 7.5 10.325 7.5H10.7C11.525 7.5 12.1125 6.6875 11.825 5.9125C11.3 4.4375 10.075 3.2125 8.125 2.7375V1.875C8.125 0.8375 7.2875 0 6.25 0C5.2125 0 4.375 0.8375 4.375 1.875V2.7C1.95 3.225 0 4.8 0 7.2125C0 10.1 2.3875 11.5375 5.875 12.375C9 13.125 9.625 14.225 9.625 15.3875C9.625 16.25 9.0125 17.625 6.25 17.625C4.1875 17.625 3.125 16.8875 2.7125 15.8375C2.525 15.35 2.1 15 1.5875 15H1.2375C0.4 15 -0.1875 15.85 0.125 16.625C0.8375 18.3625 2.5 19.3875 4.375 19.7875V20.625C4.375 21.6625 5.2125 22.5 6.25 22.5C7.2875 22.5 8.125 21.6625 8.125 20.625V19.8125C10.5625 19.35 12.5 17.9375 12.5 15.375C12.5 11.825 9.4625 10.6125 6.625 9.875Z" fill="#727272"/>
</svg>
