<svg width="40" height="36" viewBox="0 0 40 36" fill="none" xmlns="http://www.w3.org/2000/svg">
<path d="M15.1507 29.4542C14.9458 29.0431 14.5889 29.0014 14.4444 29.0014C14.3 29.0014 13.9431 29.0424 13.7486 29.4313L13.216 30.4965C12.7736 31.384 11.4778 31.2861 11.1688 30.3514L10 26.8465L9.2632 29.0604C8.85417 30.2868 7.70903 31.1111 6.41597 31.1111H5.55556C4.94167 31.1111 4.44444 30.6139 4.44444 30C4.44444 29.3861 4.94167 28.8889 5.55556 28.8889H6.41597C6.75139 28.8889 7.04861 28.675 7.15486 28.3569L8.41806 24.5625C8.64722 23.8813 9.28195 23.4229 10 23.4229C10.7181 23.4229 11.3528 23.8806 11.5813 24.5625L12.5451 27.4542C13.9167 26.3299 16.2993 26.7806 17.1285 28.4375C17.2597 28.7 17.5097 28.8507 17.7785 28.8722V23.1694L26.6674 14.3438V11.1111H17.2222C16.3056 11.1111 15.5556 10.3611 15.5556 9.44444V0H1.66667C0.743056 0 0 0.743056 0 1.66667V33.8889C0 34.8125 0.743056 35.5556 1.66667 35.5556H25C25.9236 35.5556 26.6667 34.8125 26.6667 33.8889V31.1111L17.7778 31.1035C16.6583 31.0819 15.6542 30.459 15.1507 29.4542ZM26.6667 8.46528C26.6667 8.02778 26.4931 7.60417 26.1806 7.29167L19.3819 0.486111C19.0694 0.173611 18.6458 0 18.2014 0H17.7778V8.88889H26.6667V8.46528ZM20 24.0944V28.8889H24.791L36.0187 17.5847L31.3049 12.8708L20 24.0944ZM39.4819 11.6201L37.2687 9.40695C36.5785 8.71667 35.4583 8.71667 34.7681 9.40695L32.8757 11.2993L37.5896 16.0132L39.4819 14.1208C40.1729 13.4306 40.1729 12.3104 39.4819 11.6201Z" fill="white"/>
</svg>
