<svg width="37" height="37" viewBox="0 0 37 37" fill="none" xmlns="http://www.w3.org/2000/svg">
<path d="M33.228 6.16659C33.0879 6.15215 32.9467 6.15215 32.8066 6.16659H4.02885C3.84441 6.16943 3.66119 6.19709 3.48413 6.24881L18.3355 21.0385L33.228 6.16659Z" fill="#FF8500"/>
<path d="M34.7492 7.59521L19.7848 22.498C19.3996 22.8808 18.8786 23.0957 18.3356 23.0957C17.7925 23.0957 17.2716 22.8808 16.8864 22.498L2.05559 7.70827C2.00999 7.87584 1.98582 8.04851 1.98364 8.22216V28.7777C1.98364 29.3229 2.20021 29.8457 2.5857 30.2312C2.97119 30.6167 3.49403 30.8333 4.0392 30.8333H32.817C33.3621 30.8333 33.885 30.6167 34.2705 30.2312C34.656 29.8457 34.8725 29.3229 34.8725 28.7777V8.22216C34.8644 8.00803 34.8227 7.79649 34.7492 7.59521V7.59521ZM5.44725 28.7777H4.01864V27.308L11.4906 19.8977L12.9398 21.3469L5.44725 28.7777ZM32.7964 28.7777H31.3575L23.865 21.3469L25.3142 19.8977L32.7861 27.308L32.7964 28.7777Z" fill="#FF8500"/>
</svg>
