<svg width="80" height="80" viewBox="0 0 80 80" fill="none" xmlns="http://www.w3.org/2000/svg">
<circle cx="40" cy="40" r="40" fill="#F2F2F2"/>
<path d="M27.74 28H54.24C56.74 28 58 29.18 58 31.58V48.42C58 50.8 56.74 52 54.24 52H27.74C25.24 52 23.98 50.8 23.98 48.42V31.58C23.98 29.18 25.24 28 27.74 28ZM40.98 45.2L54.46 34.14C54.94 33.74 55.32 32.82 54.72 32C54.14 31.18 53.08 31.16 52.38 31.66L40.98 39.38L29.6 31.66C28.9 31.16 27.84 31.18 27.26 32C26.66 32.82 27.04 33.74 27.52 34.14L40.98 45.2Z" fill="#FF8500"/>
</svg>
