<svg width="40" height="40" viewBox="0 0 40 40" fill="none" xmlns="http://www.w3.org/2000/svg">
<path d="M39.7039 24.1326L36.9549 20.4797C36.9734 20.1476 36.9549 19.7971 36.9549 19.5388L39.7039 15.8674C39.8406 15.6887 39.9335 15.4804 39.9751 15.2594C40.0168 15.0383 40.006 14.8105 39.9437 14.5944C39.4787 12.8934 38.8032 11.2572 37.9327 9.72374C37.8204 9.52894 37.6661 9.36162 37.481 9.23397C37.2959 9.10631 37.0847 9.02152 36.8627 8.98576L32.3426 8.34004L31.66 7.65741L31.0142 3.13733C30.9785 2.91534 30.8937 2.70411 30.766 2.519C30.6384 2.3339 30.4711 2.17958 30.2763 2.06727C28.7428 1.19681 27.1066 0.521258 25.4056 0.0562988C25.1895 -0.00601173 24.9617 -0.0167723 24.7406 0.0248804C24.5196 0.0665332 24.3113 0.159439 24.1326 0.29614L20.4797 3.02664H19.5203L15.8674 0.29614C15.6887 0.159439 15.4804 0.0665332 15.2594 0.0248804C15.0383 -0.0167723 14.8105 -0.00601173 14.5944 0.0562988C12.8934 0.521258 11.2572 1.19681 9.72374 2.06727C9.52894 2.17958 9.36162 2.3339 9.23397 2.519C9.10631 2.70411 9.02152 2.91534 8.98576 3.13733L8.34004 7.65741L7.65741 8.34004L3.13733 8.98576C2.91534 9.02152 2.70411 9.10631 2.519 9.23397C2.3339 9.36162 2.17958 9.52894 2.06727 9.72374C1.19681 11.2572 0.521258 12.8934 0.0562988 14.5944C-0.00601173 14.8105 -0.0167723 15.0383 0.0248804 15.2594C0.0665332 15.4804 0.159439 15.6887 0.29614 15.8674L3.04509 19.5203V20.4612L0.29614 24.1326C0.159439 24.3113 0.0665332 24.5196 0.0248804 24.7406C-0.0167723 24.9617 -0.00601173 25.1895 0.0562988 25.4056C0.521258 27.1066 1.19681 28.7428 2.06727 30.2763C2.17958 30.4711 2.3339 30.6384 2.519 30.766C2.70411 30.8937 2.91534 30.9785 3.13733 31.0142L7.65741 31.66L8.34004 32.3426L8.98576 36.8627C9.02152 37.0847 9.10631 37.2959 9.23397 37.481C9.36162 37.6661 9.52894 37.8204 9.72374 37.9327C11.2572 38.8032 12.8934 39.4787 14.5944 39.9437C14.7203 39.9802 14.8507 39.9988 14.9818 39.9991C15.3018 40.0032 15.6138 39.8992 15.8674 39.7039L19.5203 36.9734H20.4797L24.1326 39.7039C24.3113 39.8406 24.5196 39.9335 24.7406 39.9751C24.9617 40.0168 25.1895 40.006 25.4056 39.9437C27.1066 39.4787 28.7428 38.8032 30.2763 37.9327C30.4711 37.8204 30.6384 37.6661 30.766 37.481C30.8937 37.2959 30.9785 37.0847 31.0142 36.8627L31.66 32.3241C31.8814 32.1027 32.1396 31.8629 32.3241 31.66L36.8627 31.0142C37.0847 30.9785 37.2959 30.8937 37.481 30.766C37.6661 30.6384 37.8204 30.4711 37.9327 30.2763C38.8032 28.7428 39.4787 27.1066 39.9437 25.4056C40.006 25.1895 40.0168 24.9617 39.9751 24.7406C39.9335 24.5196 39.8406 24.3113 39.7039 24.1326ZM20 28.1177C18.3945 28.1177 16.825 27.6416 15.4901 26.7496C14.1551 25.8576 13.1146 24.5898 12.5002 23.1065C11.8858 21.6232 11.7251 19.991 12.0383 18.4163C12.3515 16.8416 13.1246 15.3952 14.2599 14.2599C15.3952 13.1246 16.8416 12.3515 18.4163 12.0383C19.991 11.7251 21.6232 11.8858 23.1065 12.5002C24.5898 13.1146 25.8576 14.1551 26.7496 15.4901C27.6416 16.825 28.1177 18.3945 28.1177 20C28.1177 22.1529 27.2624 24.2177 25.7401 25.7401C24.2177 27.2624 22.1529 28.1177 20 28.1177Z" fill="white"/>
</svg>
