<svg width="20" height="18" viewBox="0 0 20 18" fill="none" xmlns="http://www.w3.org/2000/svg">
<path d="M18.521 0.477998C18.3335 0.290527 18.0792 0.185211 17.814 0.185211C17.5488 0.185211 17.2945 0.290527 17.107 0.477998L1.48 16.107C1.38449 16.1992 1.30831 16.3096 1.2559 16.4316C1.20349 16.5536 1.1759 16.6848 1.17475 16.8176C1.1736 16.9504 1.1989 17.0821 1.24918 17.205C1.29946 17.3278 1.37371 17.4395 1.4676 17.5334C1.5615 17.6273 1.67315 17.7015 1.79605 17.7518C1.91894 17.8021 2.05062 17.8274 2.1834 17.8262C2.31618 17.8251 2.4474 17.7975 2.5694 17.7451C2.69141 17.6927 2.80175 17.6165 2.894 17.521L18.52 1.892C18.7075 1.70447 18.8128 1.45016 18.8128 1.185C18.8128 0.919833 18.7075 0.665525 18.52 0.477998H18.521ZM3.108 12.498L5.668 9.938C5.59501 9.63061 5.5571 9.31593 5.555 9C5.555 6.621 7.545 4.691 10 4.691C10.286 4.691 10.564 4.723 10.835 4.773L12.038 3.571C11.3644 3.4594 10.6828 3.40255 10 3.401C3.44 3.4 0 8.231 0 9C0 9.423 1.057 11.09 3.108 12.497V12.498ZM16.895 5.505L14.333 8.065C14.402 8.367 14.444 8.678 14.444 9C14.444 11.379 12.455 13.307 10 13.307C9.716 13.307 9.44 13.275 9.171 13.226L7.967 14.429C8.609 14.533 9.283 14.599 10 14.599C16.56 14.599 20 9.766 20 9C20 8.576 18.944 6.91 16.895 5.505V5.505Z" fill="#FF8500"/>
</svg>
