<svg width="27" height="24" viewBox="0 0 27 24" fill="none" xmlns="http://www.w3.org/2000/svg">
<path d="M19.1744 1.875C19.857 1.87443 20.5328 2.01012 21.1623 2.27414C21.7917 2.53815 22.3621 2.92517 22.84 3.4125C23.8248 4.41223 24.3768 5.75921 24.3768 7.1625C24.3768 8.56579 23.8248 9.91277 22.84 10.9125L13.1275 20.7469L3.41504 10.9125C2.43027 9.91277 1.87827 8.56579 1.87827 7.1625C1.87827 5.75921 2.43027 4.41223 3.41504 3.4125C3.89325 2.92552 4.4637 2.5387 5.09308 2.27465C5.72245 2.0106 6.39814 1.8746 7.08066 1.8746C7.76319 1.8746 8.43887 2.0106 9.06824 2.27465C9.69762 2.5387 10.2681 2.92552 10.7463 3.4125L13.1275 5.85L15.4994 3.43125C15.9759 2.93811 16.5469 2.54612 17.1784 2.27873C17.8098 2.01133 18.4887 1.87402 19.1744 1.875ZM19.1744 2.51518e-06C18.2422 -0.000787535 17.3192 0.184554 16.4595 0.545161C15.5999 0.905767 14.8208 1.43438 14.1682 2.1L13.1275 3.15L12.0869 2.1C11.4334 1.43558 10.6542 0.907886 9.79471 0.547681C8.93521 0.187476 8.01259 0.00196634 7.08066 0.00196634C6.14873 0.00196634 5.22612 0.187476 4.36661 0.547681C3.5071 0.907886 2.7279 1.43558 2.07441 2.1C0.744922 3.4534 0 5.27471 0 7.17188C0 9.06904 0.744922 10.8904 2.07441 12.2438L13.1275 23.4375L24.1807 12.2438C25.5102 10.8904 26.2551 9.06904 26.2551 7.17188C26.2551 5.27471 25.5102 3.4534 24.1807 2.1C23.5273 1.43522 22.7482 0.907168 21.8887 0.546622C21.0292 0.186077 20.1065 0.000258842 19.1744 2.51518e-06Z" fill="white"/>
</svg>
