<svg width="22" height="20" viewBox="0 0 22 20" fill="none" xmlns="http://www.w3.org/2000/svg">
<path d="M19.4578 2.59133L18.9191 3.11315L18.9194 3.11341L19.4578 2.59133ZM15.7359 1V1.75V1ZM12.0139 2.59133L12.5525 3.11328L12.5527 3.11315L12.0139 2.59133ZM10.9997 3.63785L10.4612 4.1598C10.6024 4.30557 10.7968 4.38785 10.9997 4.38785C11.2027 4.38785 11.3971 4.30557 11.5383 4.1598L10.9997 3.63785ZM9.98554 2.59133L9.44696 3.11328L9.98554 2.59133ZM2.54168 10.2724L2.00309 10.7944L2.54168 10.2724ZM10.9997 19L10.4612 19.5219C10.6024 19.6677 10.7968 19.75 10.9997 19.75C11.2027 19.75 11.3971 19.6677 11.5383 19.5219L10.9997 19ZM19.4578 10.2724L18.9194 9.75033L18.9192 9.75046L19.4578 10.2724ZM19.9965 2.06951C19.4393 1.49426 18.7764 1.03664 18.0451 0.723971L17.4554 2.1032C18.0014 2.33661 18.4989 2.6794 18.9191 3.11315L19.9965 2.06951ZM18.0451 0.723971C17.3138 0.411274 16.529 0.25 15.7359 0.25V1.75C16.3253 1.75 16.9095 1.8698 17.4554 2.1032L18.0451 0.723971ZM15.7359 0.25C14.9428 0.25 14.158 0.411274 13.4266 0.723971L14.0163 2.1032C14.5622 1.8698 15.1465 1.75 15.7359 1.75V0.25ZM13.4266 0.723971C12.6953 1.03664 12.0325 1.49427 11.4752 2.06951L12.5527 3.11315C12.9728 2.6794 13.4704 2.33661 14.0163 2.1032L13.4266 0.723971ZM11.4754 2.06938L10.4612 3.1159L11.5383 4.1598L12.5525 3.11328L11.4754 2.06938ZM11.5383 3.1159L10.5241 2.06938L9.44696 3.11328L10.4612 4.1598L11.5383 3.1159ZM10.5241 2.06938C9.3983 0.907679 7.86624 0.250528 6.26361 0.250528V1.75053C7.45296 1.75053 8.59855 2.23783 9.44696 3.11328L10.5241 2.06938ZM6.26361 0.250528C4.66097 0.250528 3.12892 0.907679 2.00309 2.06938L3.08026 3.11328C3.92867 2.23783 5.07425 1.75053 6.26361 1.75053V0.250528ZM2.00309 2.06938C0.878042 3.23029 0.25 4.79993 0.25 6.43187H1.75C1.75 5.18284 2.23107 3.98952 3.08026 3.11328L2.00309 2.06938ZM0.25 6.43187C0.25 8.0638 0.878042 9.63345 2.00309 10.7944L3.08026 9.75046C2.23107 8.87421 1.75 7.68089 1.75 6.43187H0.25ZM19.9963 10.7945C20.5537 10.2196 20.9947 9.5382 21.2952 8.78993L19.9032 8.23098C19.6744 8.80065 19.3398 9.31673 18.9194 9.75033L19.9963 10.7945ZM21.2952 8.78993C21.5956 8.04169 21.75 7.24048 21.75 6.43187H20.25C20.25 7.04986 20.132 7.66127 19.9032 8.23098L21.2952 8.78993ZM21.75 6.43187C21.75 5.62325 21.5956 4.82204 21.2952 4.07381L19.9032 4.63276C20.132 5.20247 20.25 5.81388 20.25 6.43187H21.75ZM21.2952 4.07381C20.9947 3.32554 20.5537 2.64418 19.9963 2.06926L18.9194 3.11341C19.3398 3.547 19.6744 4.06309 19.9032 4.63276L21.2952 4.07381ZM2.00309 10.7944L10.4612 19.5219L11.5383 18.4781L3.08026 9.75046L2.00309 10.7944ZM11.5383 19.5219L19.9964 10.7944L18.9192 9.75046L10.4612 18.4781L11.5383 19.5219Z" fill="#1A1A1A"/>
</svg>
