<svg width="20" height="25" viewBox="0 0 20 25" fill="none" xmlns="http://www.w3.org/2000/svg">
<path d="M13.2375 0.7375C12.7625 0.2625 12.125 0 11.4625 0H2.5C1.125 0 0 1.125 0 2.5V22.5C0 23.875 1.1125 25 2.4875 25H17.5C18.875 25 20 23.875 20 22.5V8.5375C20 7.875 19.7375 7.2375 19.2625 6.775L13.2375 0.7375ZM13.75 20H6.25C5.5625 20 5 19.4375 5 18.75C5 18.0625 5.5625 17.5 6.25 17.5H13.75C14.4375 17.5 15 18.0625 15 18.75C15 19.4375 14.4375 20 13.75 20ZM13.75 15H6.25C5.5625 15 5 14.4375 5 13.75C5 13.0625 5.5625 12.5 6.25 12.5H13.75C14.4375 12.5 15 13.0625 15 13.75C15 14.4375 14.4375 15 13.75 15ZM11.25 7.5V1.875L18.125 8.75H12.5C11.8125 8.75 11.25 8.1875 11.25 7.5Z" fill="white"/>
</svg>
