<svg width="17" height="21" viewBox="0 0 17 21" fill="none" xmlns="http://www.w3.org/2000/svg">
<path d="M11.0312 0.614583C10.6354 0.21875 10.1042 0 9.55208 0H2.08333C0.9375 0 0 0.9375 0 2.08333V18.75C0 19.8958 0.927083 20.8333 2.07292 20.8333H14.5833C15.7292 20.8333 16.6667 19.8958 16.6667 18.75V7.11458C16.6667 6.5625 16.4479 6.03125 16.0521 5.64583L11.0312 0.614583ZM11.4583 16.6667H5.20833C4.63542 16.6667 4.16667 16.1979 4.16667 15.625C4.16667 15.0521 4.63542 14.5833 5.20833 14.5833H11.4583C12.0312 14.5833 12.5 15.0521 12.5 15.625C12.5 16.1979 12.0312 16.6667 11.4583 16.6667ZM11.4583 12.5H5.20833C4.63542 12.5 4.16667 12.0312 4.16667 11.4583C4.16667 10.8854 4.63542 10.4167 5.20833 10.4167H11.4583C12.0312 10.4167 12.5 10.8854 12.5 11.4583C12.5 12.0312 12.0312 12.5 11.4583 12.5ZM9.375 6.25V1.5625L15.1042 7.29167H10.4167C9.84375 7.29167 9.375 6.82292 9.375 6.25Z" fill="#727272"/>
</svg>
