<svg width="24" height="23" viewBox="0 0 24 23" fill="none" xmlns="http://www.w3.org/2000/svg">
<path d="M21.211 7.2025V1.375C21.211 1.07663 21.0902 0.790483 20.8753 0.579505C20.6604 0.368526 20.3689 0.25 20.065 0.25C19.761 0.25 19.4696 0.368526 19.2546 0.579505C19.0397 0.790483 18.919 1.07663 18.919 1.375V7.2025C18.2553 7.43898 17.6819 7.87033 17.2766 8.43794C16.8714 9.00554 16.654 9.68187 16.654 10.375C16.654 11.0681 16.8714 11.7445 17.2766 12.3121C17.6819 12.8797 18.2553 13.311 18.919 13.5475V21.625C18.919 21.9234 19.0397 22.2095 19.2546 22.4205C19.4696 22.6315 19.761 22.75 20.065 22.75C20.3689 22.75 20.6604 22.6315 20.8753 22.4205C21.0902 22.2095 21.211 21.9234 21.211 21.625V13.5475C21.8747 13.311 22.4481 12.8797 22.8533 12.3121C23.2586 11.7445 23.476 11.0681 23.476 10.375C23.476 9.68187 23.2586 9.00554 22.8533 8.43794C22.4481 7.87033 21.8747 7.43898 21.211 7.2025ZM20.065 11.5C19.8383 11.5 19.6168 11.434 19.4283 11.3104C19.2398 11.1868 19.093 11.0111 19.0062 10.8055C18.9195 10.6 18.8968 10.3738 18.941 10.1555C18.9852 9.93729 19.0944 9.73684 19.2546 9.5795C19.4149 9.42217 19.6191 9.31502 19.8414 9.27162C20.0637 9.22821 20.2941 9.25049 20.5035 9.33564C20.7129 9.42078 20.8919 9.56498 21.0178 9.74998C21.1437 9.93499 21.211 10.1525 21.211 10.375C21.211 10.6734 21.0902 10.9595 20.8753 11.1705C20.6604 11.3815 20.3689 11.5 20.065 11.5ZM13.1891 13.9525V1.375C13.1891 1.07663 13.0684 0.790483 12.8535 0.579505C12.6385 0.368526 12.3471 0.25 12.0431 0.25C11.7392 0.25 11.4477 0.368526 11.2328 0.579505C11.0179 0.790483 10.8971 1.07663 10.8971 1.375V13.9525C10.2334 14.189 9.66002 14.6203 9.25478 15.1879C8.84954 15.7555 8.63214 16.4319 8.63214 17.125C8.63214 17.8181 8.84954 18.4945 9.25478 19.0621C9.66002 19.6297 10.2334 20.061 10.8971 20.2975V21.625C10.8971 21.9234 11.0179 22.2095 11.2328 22.4205C11.4477 22.6315 11.7392 22.75 12.0431 22.75C12.3471 22.75 12.6385 22.6315 12.8535 22.4205C13.0684 22.2095 13.1891 21.9234 13.1891 21.625V20.2975C13.8528 20.061 14.4262 19.6297 14.8315 19.0621C15.2367 18.4945 15.4541 17.8181 15.4541 17.125C15.4541 16.4319 15.2367 15.7555 14.8315 15.1879C14.4262 14.6203 13.8528 14.189 13.1891 13.9525ZM12.0431 18.25C11.8165 18.25 11.5949 18.184 11.4065 18.0604C11.218 17.9368 11.0711 17.7611 10.9844 17.5555C10.8976 17.35 10.8749 17.1238 10.9192 16.9055C10.9634 16.6873 11.0725 16.4868 11.2328 16.3295C11.3931 16.1722 11.5973 16.065 11.8196 16.0216C12.0419 15.9782 12.2723 16.0005 12.4817 16.0856C12.6911 16.1708 12.87 16.315 12.996 16.5C13.1219 16.685 13.1891 16.9025 13.1891 17.125C13.1891 17.4234 13.0684 17.7095 12.8535 17.9205C12.6385 18.1315 12.3471 18.25 12.0431 18.25ZM5.16725 4.9525V1.375C5.16725 1.07663 5.04651 0.790483 4.8316 0.579505C4.61669 0.368526 4.3252 0.25 4.02127 0.25C3.71734 0.25 3.42585 0.368526 3.21094 0.579505C2.99603 0.790483 2.87529 1.07663 2.87529 1.375V4.9525C2.21159 5.18898 1.63816 5.62033 1.23292 6.18794C0.827682 6.75554 0.610291 7.43187 0.610291 8.125C0.610291 8.81813 0.827682 9.49446 1.23292 10.0621C1.63816 10.6297 2.21159 11.061 2.87529 11.2975V21.625C2.87529 21.9234 2.99603 22.2095 3.21094 22.4205C3.42585 22.6315 3.71734 22.75 4.02127 22.75C4.3252 22.75 4.61669 22.6315 4.8316 22.4205C5.04651 22.2095 5.16725 21.9234 5.16725 21.625V11.2975C5.83095 11.061 6.40438 10.6297 6.80962 10.0621C7.21486 9.49446 7.43225 8.81813 7.43225 8.125C7.43225 7.43187 7.21486 6.75554 6.80962 6.18794C6.40438 5.62033 5.83095 5.18898 5.16725 4.9525ZM4.02127 9.25C3.79462 9.25 3.57305 9.18402 3.3846 9.0604C3.19614 8.93679 3.04926 8.76109 2.96252 8.55552C2.87579 8.34995 2.85309 8.12375 2.89731 7.90552C2.94153 7.68729 3.05067 7.48684 3.21094 7.3295C3.37121 7.17217 3.5754 7.06502 3.7977 7.02162C4.02 6.97821 4.25042 7.00049 4.45982 7.08564C4.66922 7.17078 4.8482 7.31498 4.97412 7.49998C5.10004 7.68499 5.16725 7.9025 5.16725 8.125C5.16725 8.42337 5.04651 8.70952 4.8316 8.9205C4.61669 9.13147 4.3252 9.25 4.02127 9.25Z" fill="#333333"/>
</svg>
