<svg width="58" height="71" viewBox="0 0 58 71" fill="none" xmlns="http://www.w3.org/2000/svg">
<g filter="url(#filter0_d_985_12666)">
<path d="M4 62.5V3.125C4 1.39911 5.39911 0 7.125 0H50.875C52.6009 0 54 1.39911 54 3.125V62.5L29 49.5739L4 62.5Z" fill="#C0C0C0"/>
</g>
<g filter="url(#filter1_d_985_12666)">
<path d="M18.285 27V19.776L18.813 20.184H16.653V18.24H20.517V27H18.285ZM25.3972 27.24C24.6932 27.24 24.0812 27.108 23.5612 26.844C23.0492 26.572 22.6532 26.208 22.3732 25.752C22.0932 25.296 21.9532 24.784 21.9532 24.216H24.1132C24.1132 24.456 24.1692 24.664 24.2812 24.84C24.3932 25.016 24.5492 25.152 24.7492 25.248C24.9492 25.344 25.1732 25.392 25.4212 25.392C25.7092 25.392 25.9492 25.332 26.1412 25.212C26.3412 25.092 26.4892 24.928 26.5852 24.72C26.6892 24.512 26.7412 24.276 26.7412 24.012C26.7412 23.748 26.6892 23.512 26.5852 23.304C26.4892 23.096 26.3452 22.932 26.1532 22.812C25.9612 22.692 25.7252 22.632 25.4452 22.632C25.1652 22.632 24.9212 22.696 24.7132 22.824C24.5052 22.944 24.3532 23.096 24.2572 23.28H22.1572L22.6012 18.24H28.1572V20.16H23.4172L24.3292 19.62L24.0892 22.272L23.5852 22.152C23.8252 21.848 24.1132 21.588 24.4492 21.372C24.7932 21.156 25.2652 21.048 25.8652 21.048C26.4892 21.048 27.0252 21.176 27.4732 21.432C27.9292 21.68 28.2812 22.024 28.5292 22.464C28.7772 22.896 28.9012 23.392 28.9012 23.952V24.096C28.9012 24.656 28.7652 25.176 28.4932 25.656C28.2212 26.128 27.8252 26.512 27.3052 26.808C26.7852 27.096 26.1492 27.24 25.3972 27.24ZM32.2176 27L35.3616 18.24H37.2096L34.0656 27H32.2176ZM31.6296 23.088C31.1496 23.088 30.7456 22.984 30.4176 22.776C30.0976 22.56 29.8536 22.272 29.6856 21.912C29.5256 21.552 29.4456 21.152 29.4456 20.712V20.4C29.4456 19.928 29.5296 19.516 29.6976 19.164C29.8656 18.804 30.1136 18.524 30.4416 18.324C30.7696 18.124 31.1656 18.024 31.6296 18.024C32.1016 18.024 32.4976 18.124 32.8176 18.324C33.1456 18.524 33.3936 18.804 33.5616 19.164C33.7296 19.516 33.8136 19.928 33.8136 20.4V20.712C33.8136 21.152 33.7296 21.552 33.5616 21.912C33.4016 22.272 33.1616 22.56 32.8416 22.776C32.5216 22.984 32.1176 23.088 31.6296 23.088ZM31.6296 21.648C31.8376 21.648 31.9896 21.572 32.0856 21.42C32.1816 21.268 32.2296 20.984 32.2296 20.568C32.2296 20.12 32.1776 19.824 32.0736 19.68C31.9776 19.536 31.8296 19.464 31.6296 19.464C31.4296 19.464 31.2776 19.536 31.1736 19.68C31.0776 19.824 31.0296 20.116 31.0296 20.556C31.0296 20.972 31.0776 21.26 31.1736 21.42C31.2776 21.572 31.4296 21.648 31.6296 21.648ZM37.7496 27.24C37.2696 27.24 36.8656 27.136 36.5376 26.928C36.2176 26.712 35.9736 26.424 35.8056 26.064C35.6456 25.704 35.5656 25.304 35.5656 24.864V24.552C35.5656 24.08 35.6496 23.668 35.8176 23.316C35.9856 22.956 36.2336 22.676 36.5616 22.476C36.8896 22.276 37.2856 22.176 37.7496 22.176C38.2216 22.176 38.6176 22.276 38.9376 22.476C39.2656 22.676 39.5136 22.956 39.6816 23.316C39.8496 23.668 39.9336 24.08 39.9336 24.552V24.864C39.9336 25.304 39.8496 25.704 39.6816 26.064C39.5216 26.424 39.2816 26.712 38.9616 26.928C38.6416 27.136 38.2376 27.24 37.7496 27.24ZM37.7496 25.8C37.9576 25.8 38.1096 25.724 38.2056 25.572C38.3016 25.42 38.3496 25.136 38.3496 24.72C38.3496 24.272 38.2976 23.976 38.1936 23.832C38.0976 23.688 37.9496 23.616 37.7496 23.616C37.5496 23.616 37.3976 23.688 37.2936 23.832C37.1976 23.976 37.1496 24.268 37.1496 24.708C37.1496 25.124 37.1976 25.412 37.2936 25.572C37.3976 25.724 37.5496 25.8 37.7496 25.8ZM22.7898 39.216C22.0058 39.216 21.3298 39.076 20.7617 38.796C20.1938 38.516 19.7258 38.148 19.3577 37.692C18.9898 37.236 18.7138 36.748 18.5298 36.228C18.3538 35.708 18.2658 35.208 18.2658 34.728V34.464C18.2658 33.944 18.3578 33.42 18.5418 32.892C18.7258 32.364 19.0058 31.884 19.3818 31.452C19.7578 31.012 20.2258 30.66 20.7858 30.396C21.3538 30.132 22.0218 30 22.7898 30C23.5578 30 24.2218 30.132 24.7818 30.396C25.3498 30.66 25.8218 31.012 26.1978 31.452C26.5738 31.884 26.8538 32.364 27.0378 32.892C27.2218 33.42 27.3138 33.944 27.3138 34.464V34.728C27.3138 35.208 27.2218 35.708 27.0378 36.228C26.8618 36.748 26.5898 37.236 26.2218 37.692C25.8538 38.148 25.3858 38.516 24.8178 38.796C24.2498 39.076 23.5738 39.216 22.7898 39.216ZM22.7898 38.136C23.3018 38.136 23.7618 38.04 24.1698 37.848C24.5858 37.656 24.9378 37.396 25.2258 37.068C25.5138 36.732 25.7338 36.356 25.8858 35.94C26.0378 35.516 26.1138 35.072 26.1138 34.608C26.1138 34.12 26.0378 33.664 25.8858 33.24C25.7338 32.816 25.5138 32.444 25.2258 32.124C24.9378 31.796 24.5858 31.54 24.1698 31.356C23.7618 31.172 23.3018 31.08 22.7898 31.08C22.2778 31.08 21.8138 31.172 21.3978 31.356C20.9898 31.54 20.6418 31.796 20.3538 32.124C20.0658 32.444 19.8458 32.816 19.6938 33.24C19.5418 33.664 19.4658 34.12 19.4658 34.608C19.4658 35.072 19.5418 35.516 19.6938 35.94C19.8458 36.356 20.0658 36.732 20.3538 37.068C20.6418 37.396 20.9898 37.656 21.3978 37.848C21.8138 38.04 22.2778 38.136 22.7898 38.136ZM29.2486 39V30.24H30.4246V39H29.2486ZM30.1846 35.1V34.044L33.9406 34.032V35.088L30.1846 35.1ZM30.1846 31.296V30.24H34.1446V31.296H30.1846ZM35.9634 39V30.24H37.1394V39H35.9634ZM36.8994 35.1V34.044L40.6554 34.032V35.088L36.8994 35.1ZM36.8994 31.296V30.24H40.8594V31.296H36.8994Z" fill="white"/>
</g>
<defs>
<filter id="filter0_d_985_12666" x="0" y="0" width="58" height="70.5" filterUnits="userSpaceOnUse" color-interpolation-filters="sRGB">
<feFlood flood-opacity="0" result="BackgroundImageFix"/>
<feColorMatrix in="SourceAlpha" type="matrix" values="0 0 0 0 0 0 0 0 0 0 0 0 0 0 0 0 0 0 127 0" result="hardAlpha"/>
<feOffset dy="4"/>
<feGaussianBlur stdDeviation="2"/>
<feComposite in2="hardAlpha" operator="out"/>
<feColorMatrix type="matrix" values="0 0 0 0 0 0 0 0 0 0 0 0 0 0 0 0 0 0 0.25 0"/>
<feBlend mode="normal" in2="BackgroundImageFix" result="effect1_dropShadow_985_12666"/>
<feBlend mode="normal" in="SourceGraphic" in2="effect1_dropShadow_985_12666" result="shape"/>
</filter>
<filter id="filter1_d_985_12666" x="12.6528" y="18.024" width="32.2065" height="29.192" filterUnits="userSpaceOnUse" color-interpolation-filters="sRGB">
<feFlood flood-opacity="0" result="BackgroundImageFix"/>
<feColorMatrix in="SourceAlpha" type="matrix" values="0 0 0 0 0 0 0 0 0 0 0 0 0 0 0 0 0 0 127 0" result="hardAlpha"/>
<feOffset dy="4"/>
<feGaussianBlur stdDeviation="2"/>
<feComposite in2="hardAlpha" operator="out"/>
<feColorMatrix type="matrix" values="0 0 0 0 0 0 0 0 0 0 0 0 0 0 0 0 0 0 0.25 0"/>
<feBlend mode="normal" in2="BackgroundImageFix" result="effect1_dropShadow_985_12666"/>
<feBlend mode="normal" in="SourceGraphic" in2="effect1_dropShadow_985_12666" result="shape"/>
</filter>
</defs>
</svg>
