<svg width="58" height="71" viewBox="0 0 58 71" fill="none" xmlns="http://www.w3.org/2000/svg">
<g filter="url(#filter0_d_985_12668)">
<path d="M4 62.5V3.125C4 1.39911 5.39911 0 7.125 0H50.875C52.6009 0 54 1.39911 54 3.125V62.5L29 49.5739L4 62.5Z" fill="#00C3CF"/>
</g>
<g filter="url(#filter1_d_985_12668)">
<path d="M18.285 29V21.776L18.813 22.184H16.653V20.24H20.517V29H18.285ZM25.3972 29.24C24.6932 29.24 24.0812 29.108 23.5612 28.844C23.0492 28.572 22.6532 28.208 22.3732 27.752C22.0932 27.296 21.9532 26.784 21.9532 26.216H24.1132C24.1132 26.456 24.1692 26.664 24.2812 26.84C24.3932 27.016 24.5492 27.152 24.7492 27.248C24.9492 27.344 25.1732 27.392 25.4212 27.392C25.7092 27.392 25.9492 27.332 26.1412 27.212C26.3412 27.092 26.4892 26.928 26.5852 26.72C26.6892 26.512 26.7412 26.276 26.7412 26.012C26.7412 25.748 26.6892 25.512 26.5852 25.304C26.4892 25.096 26.3452 24.932 26.1532 24.812C25.9612 24.692 25.7252 24.632 25.4452 24.632C25.1652 24.632 24.9212 24.696 24.7132 24.824C24.5052 24.944 24.3532 25.096 24.2572 25.28H22.1572L22.6012 20.24H28.1572V22.16H23.4172L24.3292 21.62L24.0892 24.272L23.5852 24.152C23.8252 23.848 24.1132 23.588 24.4492 23.372C24.7932 23.156 25.2652 23.048 25.8652 23.048C26.4892 23.048 27.0252 23.176 27.4732 23.432C27.9292 23.68 28.2812 24.024 28.5292 24.464C28.7772 24.896 28.9012 25.392 28.9012 25.952V26.096C28.9012 26.656 28.7652 27.176 28.4932 27.656C28.2212 28.128 27.8252 28.512 27.3052 28.808C26.7852 29.096 26.1492 29.24 25.3972 29.24ZM32.2176 29L35.3616 20.24H37.2096L34.0656 29H32.2176ZM31.6296 25.088C31.1496 25.088 30.7456 24.984 30.4176 24.776C30.0976 24.56 29.8536 24.272 29.6856 23.912C29.5256 23.552 29.4456 23.152 29.4456 22.712V22.4C29.4456 21.928 29.5296 21.516 29.6976 21.164C29.8656 20.804 30.1136 20.524 30.4416 20.324C30.7696 20.124 31.1656 20.024 31.6296 20.024C32.1016 20.024 32.4976 20.124 32.8176 20.324C33.1456 20.524 33.3936 20.804 33.5616 21.164C33.7296 21.516 33.8136 21.928 33.8136 22.4V22.712C33.8136 23.152 33.7296 23.552 33.5616 23.912C33.4016 24.272 33.1616 24.56 32.8416 24.776C32.5216 24.984 32.1176 25.088 31.6296 25.088ZM31.6296 23.648C31.8376 23.648 31.9896 23.572 32.0856 23.42C32.1816 23.268 32.2296 22.984 32.2296 22.568C32.2296 22.12 32.1776 21.824 32.0736 21.68C31.9776 21.536 31.8296 21.464 31.6296 21.464C31.4296 21.464 31.2776 21.536 31.1736 21.68C31.0776 21.824 31.0296 22.116 31.0296 22.556C31.0296 22.972 31.0776 23.26 31.1736 23.42C31.2776 23.572 31.4296 23.648 31.6296 23.648ZM37.7496 29.24C37.2696 29.24 36.8656 29.136 36.5376 28.928C36.2176 28.712 35.9736 28.424 35.8056 28.064C35.6456 27.704 35.5656 27.304 35.5656 26.864V26.552C35.5656 26.08 35.6496 25.668 35.8176 25.316C35.9856 24.956 36.2336 24.676 36.5616 24.476C36.8896 24.276 37.2856 24.176 37.7496 24.176C38.2216 24.176 38.6176 24.276 38.9376 24.476C39.2656 24.676 39.5136 24.956 39.6816 25.316C39.8496 25.668 39.9336 26.08 39.9336 26.552V26.864C39.9336 27.304 39.8496 27.704 39.6816 28.064C39.5216 28.424 39.2816 28.712 38.9616 28.928C38.6416 29.136 38.2376 29.24 37.7496 29.24ZM37.7496 27.8C37.9576 27.8 38.1096 27.724 38.2056 27.572C38.3016 27.42 38.3496 27.136 38.3496 26.72C38.3496 26.272 38.2976 25.976 38.1936 25.832C38.0976 25.688 37.9496 25.616 37.7496 25.616C37.5496 25.616 37.3976 25.688 37.2936 25.832C37.1976 25.976 37.1496 26.268 37.1496 26.708C37.1496 27.124 37.1976 27.412 37.2936 27.572C37.3976 27.724 37.5496 27.8 37.7496 27.8ZM22.7898 41.216C22.0058 41.216 21.3298 41.076 20.7617 40.796C20.1938 40.516 19.7258 40.148 19.3577 39.692C18.9898 39.236 18.7138 38.748 18.5298 38.228C18.3538 37.708 18.2658 37.208 18.2658 36.728V36.464C18.2658 35.944 18.3578 35.42 18.5418 34.892C18.7258 34.364 19.0058 33.884 19.3818 33.452C19.7578 33.012 20.2258 32.66 20.7858 32.396C21.3538 32.132 22.0218 32 22.7898 32C23.5578 32 24.2218 32.132 24.7818 32.396C25.3498 32.66 25.8218 33.012 26.1978 33.452C26.5738 33.884 26.8538 34.364 27.0378 34.892C27.2218 35.42 27.3138 35.944 27.3138 36.464V36.728C27.3138 37.208 27.2218 37.708 27.0378 38.228C26.8618 38.748 26.5898 39.236 26.2218 39.692C25.8538 40.148 25.3858 40.516 24.8178 40.796C24.2498 41.076 23.5738 41.216 22.7898 41.216ZM22.7898 40.136C23.3018 40.136 23.7618 40.04 24.1698 39.848C24.5858 39.656 24.9378 39.396 25.2258 39.068C25.5138 38.732 25.7338 38.356 25.8858 37.94C26.0378 37.516 26.1138 37.072 26.1138 36.608C26.1138 36.12 26.0378 35.664 25.8858 35.24C25.7338 34.816 25.5138 34.444 25.2258 34.124C24.9378 33.796 24.5858 33.54 24.1698 33.356C23.7618 33.172 23.3018 33.08 22.7898 33.08C22.2778 33.08 21.8138 33.172 21.3978 33.356C20.9898 33.54 20.6418 33.796 20.3538 34.124C20.0658 34.444 19.8458 34.816 19.6938 35.24C19.5418 35.664 19.4658 36.12 19.4658 36.608C19.4658 37.072 19.5418 37.516 19.6938 37.94C19.8458 38.356 20.0658 38.732 20.3538 39.068C20.6418 39.396 20.9898 39.656 21.3978 39.848C21.8138 40.04 22.2778 40.136 22.7898 40.136ZM29.2486 41V32.24H30.4246V41H29.2486ZM30.1846 37.1V36.044L33.9406 36.032V37.088L30.1846 37.1ZM30.1846 33.296V32.24H34.1446V33.296H30.1846ZM35.9634 41V32.24H37.1394V41H35.9634ZM36.8994 37.1V36.044L40.6554 36.032V37.088L36.8994 37.1ZM36.8994 33.296V32.24H40.8594V33.296H36.8994Z" fill="white"/>
</g>
<defs>
<filter id="filter0_d_985_12668" x="0" y="0" width="58" height="70.5" filterUnits="userSpaceOnUse" color-interpolation-filters="sRGB">
<feFlood flood-opacity="0" result="BackgroundImageFix"/>
<feColorMatrix in="SourceAlpha" type="matrix" values="0 0 0 0 0 0 0 0 0 0 0 0 0 0 0 0 0 0 127 0" result="hardAlpha"/>
<feOffset dy="4"/>
<feGaussianBlur stdDeviation="2"/>
<feComposite in2="hardAlpha" operator="out"/>
<feColorMatrix type="matrix" values="0 0 0 0 0 0 0 0 0 0 0 0 0 0 0 0 0 0 0.25 0"/>
<feBlend mode="normal" in2="BackgroundImageFix" result="effect1_dropShadow_985_12668"/>
<feBlend mode="normal" in="SourceGraphic" in2="effect1_dropShadow_985_12668" result="shape"/>
</filter>
<filter id="filter1_d_985_12668" x="12.6528" y="20.024" width="32.2065" height="29.192" filterUnits="userSpaceOnUse" color-interpolation-filters="sRGB">
<feFlood flood-opacity="0" result="BackgroundImageFix"/>
<feColorMatrix in="SourceAlpha" type="matrix" values="0 0 0 0 0 0 0 0 0 0 0 0 0 0 0 0 0 0 127 0" result="hardAlpha"/>
<feOffset dy="4"/>
<feGaussianBlur stdDeviation="2"/>
<feComposite in2="hardAlpha" operator="out"/>
<feColorMatrix type="matrix" values="0 0 0 0 0 0 0 0 0 0 0 0 0 0 0 0 0 0 0.25 0"/>
<feBlend mode="normal" in2="BackgroundImageFix" result="effect1_dropShadow_985_12668"/>
<feBlend mode="normal" in="SourceGraphic" in2="effect1_dropShadow_985_12668" result="shape"/>
</filter>
</defs>
</svg>
