<svg width="58" height="71" viewBox="0 0 58 71" fill="none" xmlns="http://www.w3.org/2000/svg">
<g filter="url(#filter0_d_121_2)">
<path class='teste' d="M4 62.5V3.125C4 1.39911 5.39911 0 7.125 0H50.875C52.6009 0 54 1.39911 54 3.125V62.5L29 49.5739L4 62.5Z" fill="#9C5221"/>
</g>
<g filter="url(#filter1_d_121_2)">
<path d="M17.4982 17.976C18.1462 17.976 18.7062 18.084 19.1782 18.3C19.6582 18.508 20.0502 18.804 20.3542 19.188C20.6662 19.572 20.8942 20.02 21.0382 20.532C21.1902 21.036 21.2662 21.58 21.2662 22.164V22.644C21.2662 24.124 20.8862 25.232 20.1262 25.968C19.3662 26.704 18.2382 27.072 16.7422 27.072C16.4462 27.072 16.1422 27.064 15.8302 27.048C15.5182 27.032 15.2262 27.008 14.9542 26.976V25.104C15.2182 25.128 15.5142 25.152 15.8422 25.176C16.1702 25.192 16.4942 25.2 16.8142 25.2C17.4302 25.2 17.9102 25.104 18.2542 24.912C18.6062 24.72 18.8502 24.428 18.9862 24.036C19.1302 23.644 19.2022 23.148 19.2022 22.548V21.516L19.6822 21.492C19.6742 22.084 19.5502 22.58 19.3102 22.98C19.0782 23.372 18.7542 23.668 18.3382 23.868C17.9222 24.068 17.4422 24.168 16.8982 24.168C16.2822 24.168 15.7462 24.048 15.2902 23.808C14.8422 23.56 14.4942 23.216 14.2462 22.776C13.9982 22.336 13.8742 21.812 13.8742 21.204C13.8742 20.548 14.0262 19.98 14.3302 19.5C14.6422 19.012 15.0702 18.636 15.6142 18.372C16.1582 18.108 16.7862 17.976 17.4982 17.976ZM17.5702 19.824C17.2502 19.824 16.9742 19.88 16.7422 19.992C16.5182 20.104 16.3422 20.26 16.2142 20.46C16.0942 20.66 16.0342 20.892 16.0342 21.156C16.0342 21.428 16.0942 21.664 16.2142 21.864C16.3342 22.056 16.5062 22.208 16.7302 22.32C16.9542 22.432 17.2222 22.488 17.5342 22.488C17.8142 22.488 18.0742 22.44 18.3142 22.344C18.5542 22.248 18.7462 22.104 18.8902 21.912C19.0342 21.712 19.1062 21.46 19.1062 21.156C19.1062 20.892 19.0462 20.66 18.9262 20.46C18.8062 20.26 18.6302 20.104 18.3982 19.992C18.1742 19.88 17.8982 19.824 17.5702 19.824ZM26.4657 27.24C25.7537 27.24 25.1457 27.128 24.6417 26.904C24.1377 26.672 23.7257 26.36 23.4057 25.968C23.0857 25.568 22.8497 25.112 22.6977 24.6C22.5457 24.08 22.4697 23.536 22.4697 22.968V22.272C22.4697 21.472 22.6137 20.748 22.9017 20.1C23.1897 19.452 23.6297 18.936 24.2217 18.552C24.8137 18.168 25.5617 17.976 26.4657 17.976C27.3697 17.976 28.1137 18.168 28.6977 18.552C29.2897 18.936 29.7297 19.452 30.0177 20.1C30.3057 20.748 30.4497 21.472 30.4497 22.272V22.968C30.4497 23.536 30.3737 24.08 30.2217 24.6C30.0697 25.112 29.8337 25.568 29.5137 25.968C29.2017 26.36 28.7937 26.672 28.2897 26.904C27.7857 27.128 27.1777 27.24 26.4657 27.24ZM26.4657 25.176C27.0577 25.176 27.4977 24.968 27.7857 24.552C28.0737 24.136 28.2177 23.496 28.2177 22.632C28.2177 21.712 28.0697 21.052 27.7737 20.652C27.4777 20.244 27.0417 20.04 26.4657 20.04C25.8817 20.04 25.4417 20.244 25.1457 20.652C24.8497 21.052 24.7017 21.704 24.7017 22.608C24.7017 23.48 24.8457 24.128 25.1337 24.552C25.4297 24.968 25.8737 25.176 26.4657 25.176ZM34.0204 27L37.1644 18.24H39.0124L35.8684 27H34.0204ZM33.4324 23.088C32.9524 23.088 32.5484 22.984 32.2204 22.776C31.9004 22.56 31.6564 22.272 31.4884 21.912C31.3284 21.552 31.2484 21.152 31.2484 20.712V20.4C31.2484 19.928 31.3324 19.516 31.5004 19.164C31.6684 18.804 31.9164 18.524 32.2444 18.324C32.5724 18.124 32.9684 18.024 33.4324 18.024C33.9044 18.024 34.3004 18.124 34.6204 18.324C34.9484 18.524 35.1964 18.804 35.3644 19.164C35.5324 19.516 35.6164 19.928 35.6164 20.4V20.712C35.6164 21.152 35.5324 21.552 35.3644 21.912C35.2044 22.272 34.9644 22.56 34.6444 22.776C34.3244 22.984 33.9204 23.088 33.4324 23.088ZM33.4324 21.648C33.6404 21.648 33.7924 21.572 33.8884 21.42C33.9844 21.268 34.0324 20.984 34.0324 20.568C34.0324 20.12 33.9804 19.824 33.8764 19.68C33.7804 19.536 33.6324 19.464 33.4324 19.464C33.2324 19.464 33.0804 19.536 32.9764 19.68C32.8804 19.824 32.8324 20.116 32.8324 20.556C32.8324 20.972 32.8804 21.26 32.9764 21.42C33.0804 21.572 33.2324 21.648 33.4324 21.648ZM39.5524 27.24C39.0724 27.24 38.6684 27.136 38.3404 26.928C38.0204 26.712 37.7764 26.424 37.6084 26.064C37.4484 25.704 37.3684 25.304 37.3684 24.864V24.552C37.3684 24.08 37.4524 23.668 37.6204 23.316C37.7884 22.956 38.0364 22.676 38.3644 22.476C38.6924 22.276 39.0884 22.176 39.5524 22.176C40.0244 22.176 40.4204 22.276 40.7404 22.476C41.0684 22.676 41.3164 22.956 41.4844 23.316C41.6524 23.668 41.7364 24.08 41.7364 24.552V24.864C41.7364 25.304 41.6524 25.704 41.4844 26.064C41.3244 26.424 41.0844 26.712 40.7644 26.928C40.4444 27.136 40.0404 27.24 39.5524 27.24ZM39.5524 25.8C39.7604 25.8 39.9124 25.724 40.0084 25.572C40.1044 25.42 40.1524 25.136 40.1524 24.72C40.1524 24.272 40.1004 23.976 39.9964 23.832C39.9004 23.688 39.7524 23.616 39.5524 23.616C39.3524 23.616 39.2004 23.688 39.0964 23.832C39.0004 23.976 38.9524 24.268 38.9524 24.708C38.9524 25.124 39.0004 25.412 39.0964 25.572C39.2004 25.724 39.3524 25.8 39.5524 25.8ZM22.2898 39.216C21.5058 39.216 20.8298 39.076 20.2617 38.796C19.6938 38.516 19.2258 38.148 18.8577 37.692C18.4898 37.236 18.2138 36.748 18.0298 36.228C17.8538 35.708 17.7658 35.208 17.7658 34.728V34.464C17.7658 33.944 17.8578 33.42 18.0418 32.892C18.2258 32.364 18.5058 31.884 18.8818 31.452C19.2578 31.012 19.7258 30.66 20.2858 30.396C20.8538 30.132 21.5218 30 22.2898 30C23.0578 30 23.7218 30.132 24.2818 30.396C24.8498 30.66 25.3218 31.012 25.6978 31.452C26.0738 31.884 26.3538 32.364 26.5378 32.892C26.7218 33.42 26.8138 33.944 26.8138 34.464V34.728C26.8138 35.208 26.7218 35.708 26.5378 36.228C26.3618 36.748 26.0898 37.236 25.7218 37.692C25.3538 38.148 24.8858 38.516 24.3178 38.796C23.7498 39.076 23.0738 39.216 22.2898 39.216ZM22.2898 38.136C22.8018 38.136 23.2618 38.04 23.6698 37.848C24.0858 37.656 24.4378 37.396 24.7258 37.068C25.0138 36.732 25.2338 36.356 25.3858 35.94C25.5378 35.516 25.6138 35.072 25.6138 34.608C25.6138 34.12 25.5378 33.664 25.3858 33.24C25.2338 32.816 25.0138 32.444 24.7258 32.124C24.4378 31.796 24.0858 31.54 23.6698 31.356C23.2618 31.172 22.8018 31.08 22.2898 31.08C21.7778 31.08 21.3138 31.172 20.8978 31.356C20.4898 31.54 20.1418 31.796 19.8538 32.124C19.5658 32.444 19.3458 32.816 19.1938 33.24C19.0418 33.664 18.9658 34.12 18.9658 34.608C18.9658 35.072 19.0418 35.516 19.1938 35.94C19.3458 36.356 19.5658 36.732 19.8538 37.068C20.1418 37.396 20.4898 37.656 20.8978 37.848C21.3138 38.04 21.7778 38.136 22.2898 38.136ZM28.7486 39V30.24H29.9246V39H28.7486ZM29.6846 35.1V34.044L33.4406 34.032V35.088L29.6846 35.1ZM29.6846 31.296V30.24H33.6446V31.296H29.6846ZM35.4634 39V30.24H36.6394V39H35.4634ZM36.3994 35.1V34.044L40.1554 34.032V35.088L36.3994 35.1ZM36.3994 31.296V30.24H40.3594V31.296H36.3994Z" fill="white"/>
</g>
<defs>
<filter id="filter0_d_121_2" x="0" y="0" width="58" height="70.5" filterUnits="userSpaceOnUse" color-interpolation-filters="sRGB">
<feFlood flood-opacity="0" result="BackgroundImageFix"/>
<feColorMatrix in="SourceAlpha" type="matrix" values="0 0 0 0 0 0 0 0 0 0 0 0 0 0 0 0 0 0 127 0" result="hardAlpha"/>
<feOffset dy="4"/>
<feGaussianBlur stdDeviation="2"/>
<feComposite in2="hardAlpha" operator="out"/>
<feColorMatrix type="matrix" values="0 0 0 0 0 0 0 0 0 0 0 0 0 0 0 0 0 0 0.25 0"/>
<feBlend mode="normal" in2="BackgroundImageFix" result="effect1_dropShadow_121_2"/>
<feBlend mode="normal" in="SourceGraphic" in2="effect1_dropShadow_121_2" result="shape"/>
</filter>
<filter id="filter1_d_121_2" x="9.87424" y="17.976" width="35.8621" height="29.24" filterUnits="userSpaceOnUse" color-interpolation-filters="sRGB">
<feFlood flood-opacity="0" result="BackgroundImageFix"/>
<feColorMatrix in="SourceAlpha" type="matrix" values="0 0 0 0 0 0 0 0 0 0 0 0 0 0 0 0 0 0 127 0" result="hardAlpha"/>
<feOffset dy="4"/>
<feGaussianBlur stdDeviation="2"/>
<feComposite in2="hardAlpha" operator="out"/>
<feColorMatrix type="matrix" values="0 0 0 0 0 0 0 0 0 0 0 0 0 0 0 0 0 0 0.25 0"/>
<feBlend mode="normal" in2="BackgroundImageFix" result="effect1_dropShadow_121_2"/>
<feBlend mode="normal" in="SourceGraphic" in2="effect1_dropShadow_121_2" result="shape"/>
</filter>
</defs>
</svg>
