<svg width="140" height="140" viewBox="0 0 140 140" fill="none" xmlns="http://www.w3.org/2000/svg">
<circle cx="70.0007" cy="70" r="70" fill="#CECECE"/>
<path d="M70.0007 0C31.3607 0 0.000732422 31.36 0.000732422 70C0.000732422 108.64 31.3607 140 70.0007 140C108.641 140 140.001 108.64 140.001 70C140.001 31.36 108.641 0 70.0007 0ZM70.0007 21C81.6207 21 91.0007 30.38 91.0007 42C91.0007 53.62 81.6207 63 70.0007 63C58.3807 63 49.0007 53.62 49.0007 42C49.0007 30.38 58.3807 21 70.0007 21ZM70.0007 120.4C61.6838 120.4 53.496 118.342 46.1677 114.409C38.8393 110.476 32.5982 104.791 28.0007 97.86C28.2107 83.93 56.0007 76.3 70.0007 76.3C83.9307 76.3 111.791 83.93 112.001 97.86C107.403 104.791 101.162 110.476 93.8338 114.409C86.5054 118.342 78.3177 120.4 70.0007 120.4Z" fill="#F2F2F2"/>
<rect x="107.001" y="111" width="20" height="17" fill="white"/>
<path d="M123.334 104.917H111.667C106.842 104.917 102.917 108.841 102.917 113.667V132.625C102.917 133.012 103.071 133.383 103.345 133.656C103.618 133.93 103.989 134.083 104.376 134.083H123.334C128.16 134.083 132.084 130.159 132.084 125.333V113.667C132.084 108.841 128.16 104.917 123.334 104.917ZM113.124 126.792H110.209V123.876L118.274 115.824L121.189 118.739L113.124 126.792ZM122.564 117.364L119.649 114.448L121.871 112.227L124.787 115.143L122.564 117.364Z" fill="#FF8500"/>
</svg>
