<svg width="140" height="140" viewBox="0 0 140 140" fill="none" xmlns="http://www.w3.org/2000/svg">
<circle cx="70" cy="70" r="70" fill="#F2F2F2"/>
<path d="M106.027 75.1778L100.486 58.5565C99.6825 56.1366 98.1366 54.0315 96.0681 52.5403C93.9997 51.0491 91.5139 50.2477 88.964 50.25H52.0361C49.4861 50.2477 47.0003 51.0491 44.9319 52.5403C42.8634 54.0315 41.3175 56.1366 40.5138 58.5565L34.9734 75.1778C33.5004 75.7947 32.2425 76.833 31.3577 78.1624C30.4729 79.4918 30.0005 81.053 30 82.65V94.8C30 97.7889 31.6362 100.373 34.05 101.778V106.95C34.05 108.024 34.4767 109.054 35.2362 109.814C35.9957 110.573 37.0259 111 38.1 111H42.15C43.2241 111 44.2543 110.573 45.0138 109.814C45.7733 109.054 46.2 108.024 46.2 106.95V102.9H94.8V106.95C94.8 108.024 95.2267 109.054 95.9862 109.814C96.7457 110.573 97.7759 111 98.85 111H102.9C103.974 111 105.004 110.573 105.764 109.814C106.523 109.054 106.95 108.024 106.95 106.95V101.778C108.179 101.073 109.2 100.057 109.911 98.8324C110.622 97.6073 110.998 96.2165 111 94.8V82.65C111 79.2845 108.947 76.4049 106.027 75.1778ZM52.0361 58.35H88.9599C89.8103 58.3498 90.6391 58.6173 91.329 59.1145C92.0188 59.6117 92.5346 60.3134 92.8034 61.1202L97.2827 74.55H43.7174L48.1926 61.1202C48.7475 59.4638 50.2946 58.35 52.0361 58.35V58.35ZM44.175 94.8C43.377 94.7997 42.5868 94.6423 41.8496 94.3366C41.1124 94.031 40.4426 93.5831 39.8785 93.0186C38.7392 91.8786 38.0995 90.3327 38.1 88.721C38.1005 87.1092 38.7413 85.5637 39.8814 84.4244C41.0214 83.2852 42.5673 82.6454 44.1791 82.646C45.7908 82.6465 47.3363 83.2873 48.4756 84.4273C49.6148 85.5673 50.2546 87.1133 50.2541 88.725C50.2535 90.3367 49.6127 91.8822 48.4727 93.0215C47.3327 94.1608 45.7867 94.8005 44.175 94.8V94.8ZM96.825 94.8C95.2133 94.7995 93.6678 94.1587 92.5285 93.0186C91.3892 91.8786 90.7495 90.3327 90.75 88.721C90.7505 87.1092 91.3913 85.5637 92.5314 84.4244C93.6714 83.2852 95.2173 82.6454 96.8291 82.646C98.4408 82.6465 99.9863 83.2873 101.126 84.4273C102.265 85.5673 102.905 87.1133 102.904 88.725C102.904 90.3367 102.263 91.8822 101.123 93.0215C99.9827 94.1608 98.4367 94.8005 96.825 94.8V94.8ZM43.2719 42.15C44.6772 44.5598 47.2611 46.2 50.25 46.2C53.2389 46.2 55.8228 44.5598 57.2281 42.15H83.7759C85.1772 44.5598 87.7611 46.2 90.75 46.2C93.7389 46.2 96.3228 44.5598 97.7282 42.15H90.75V34.05H97.7282C96.3228 31.6402 93.7389 30 90.75 30C87.7611 30 85.1772 31.6402 83.7719 34.05H57.2281C55.8228 31.6402 53.2389 30 50.25 30C47.2611 30 44.6772 31.6402 43.2719 34.05H50.25V42.15H43.2719Z" fill="#CECECE"/>
</svg>
