<svg width="140" height="140" viewBox="0 0 140 140" fill="none" xmlns="http://www.w3.org/2000/svg">
<circle cx="70" cy="70" r="70" fill="#CECECE"/>
<path d="M70 0C31.36 0 0 31.36 0 70C0 108.64 31.36 140 70 140C108.64 140 140 108.64 140 70C140 31.36 108.64 0 70 0ZM70 21C81.62 21 91 30.38 91 42C91 53.62 81.62 63 70 63C58.38 63 49 53.62 49 42C49 30.38 58.38 21 70 21ZM70 120.4C61.683 120.4 53.4953 118.342 46.167 114.409C38.8386 110.476 32.5974 104.791 28 97.86C28.21 83.93 56 76.3 70 76.3C83.93 76.3 111.79 83.93 112 97.86C107.403 104.791 101.161 110.476 93.833 114.409C86.5047 118.342 78.317 120.4 70 120.4Z" fill="#F2F2F2"/>
</svg>
