<svg width="38" height="38" viewBox="0 0 38 38" fill="none" xmlns="http://www.w3.org/2000/svg">
<path d="M36.9768 15.4094H35.5V15.3333H19V22.6667H29.3611C27.8495 26.9356 23.7878 30 19 30C12.9253 30 8 25.0747 8 19C8 12.9252 12.9253 8 19 8C21.8041 8 24.3552 9.05783 26.2976 10.7857L31.4832 5.60016C28.2088 2.54858 23.829 0.666664 19 0.666664C8.87542 0.666664 0.666668 8.87541 0.666668 19C0.666668 29.1246 8.87542 37.3333 19 37.3333C29.1246 37.3333 37.3333 29.1246 37.3333 19C37.3333 17.7707 37.2068 16.5708 36.9768 15.4094Z" fill="#FFC107"/>
<path d="M36.9768 15.4094H35.5V15.3333H19V22.6667H29.3611C28.638 24.6984 27.3356 26.4737 25.6147 27.7734L25.6174 27.7716L31.2916 32.5731C30.8901 32.9379 37.3333 28.1667 37.3333 19C37.3333 17.7707 37.2068 16.5708 36.9768 15.4094Z" fill="#1976D2"/>
<path d="M19 37.3333C23.7355 37.3333 28.0383 35.5211 31.2916 32.574L25.6174 27.7725C23.7149 29.2194 21.3902 30.0019 19 30C14.2315 30 10.1826 26.9594 8.65725 22.7162L2.67875 27.3224C5.71292 33.2597 11.8747 37.3333 19 37.3333Z" fill="#4CAF50"/>
<path d="M2.7805 10.4667L8.80392 14.8842C10.4338 10.849 14.3809 8 19 8C21.8041 8 24.3552 9.05783 26.2976 10.7857L31.4832 5.60016C28.2088 2.54858 23.829 0.666664 19 0.666664C11.9582 0.666664 5.85134 4.64225 2.7805 10.4667Z" fill="#FF3D00"/>
</svg>
