<svg width="142" height="143" viewBox="0 0 142 143" fill="none" xmlns="http://www.w3.org/2000/svg">
<rect width="158.298" height="143" transform="translate(-17)" fill="white"/>
<path fill-rule="evenodd" clip-rule="evenodd" d="M81.02 29.4732C81.2679 21.1572 69.617 6.96067 50.5302 9.43417C29.6329 12.1423 14.4699 33.8335 17.4905 58.0773L17.6056 59.0085C19.4599 74.151 20.0795 86.0794 16.8755 102.876C14.48 115.434 31.5146 143.236 69.1957 138.838C106.877 134.44 127.574 93.6231 109.792 74.3639C86.0421 48.6395 80.4774 47.6742 81.02 29.4732Z" fill="#FF8500"/>
<path fill-rule="evenodd" clip-rule="evenodd" d="M58.642 53.7188C57.9955 52.2159 56.7709 50.9885 55.7109 49.6914C52.8765 46.2231 51.1189 42.0445 50.6883 37.7511C50.4585 35.4591 51.3312 24.2722 55.9466 21.6478C53.668 21.0141 51.3312 20.3532 49.4622 19.0161C47.5933 17.6789 46.2706 15.4928 46.7735 13.3875C47.5348 10.2011 52.1159 8.83307 55.5331 9.88039C58.9503 10.9277 61.4084 13.5773 63.6828 16.108C65.8576 15.9425 66.3975 13.0478 68.3838 12.2309C69.7236 11.6799 71.2813 12.2448 72.5802 12.8707C76.3601 14.6922 79.9005 17.19 81.8992 20.6131C83.8979 24.0363 84.0709 28.5047 81.5243 31.6168C82.4519 30.6574 84.3743 31.8506 84.2645 33.1206C84.1546 34.3906 82.9127 35.3122 81.7271 36.0018C80.5415 36.6914 79.2167 37.4063 78.7482 38.6078C77.5689 41.6323 75.6953 44.4343 73.2807 46.7847C71.8054 48.2208 70.1117 49.5129 69.0175 51.2044C67.9233 52.8959 67.5578 55.1692 68.8341 56.7532C70.5312 55.1214 73.4564 54.6626 75.6632 55.682C77.8699 56.7014 79.1705 59.1124 78.6996 61.3106C81.7745 61.5489 84.537 63.7496 85.1836 66.4756C91.4182 72.1529 96.5107 78.8507 100.139 86.1452C102.442 90.7755 104.152 95.6247 105.857 100.461C106.524 102.354 107.199 104.337 106.828 106.294C106.073 110.27 101.299 112.611 96.8649 113.082C91.3439 113.668 85.591 112.213 81.2092 109.123C78.8686 115.698 76.5322 122.88 79.193 129.356C79.7628 130.742 78.6233 132.317 77.1348 132.933C75.6462 133.549 73.933 133.459 72.2995 133.357C63.1443 132.784 53.989 132.211 44.8338 131.637C42.9153 131.517 40.2922 130.498 40.9713 128.872C42.4878 125.242 42.9211 121.249 42.2136 117.422C41.6738 119.999 40.7379 122.508 39.441 124.855C39.441 124.855 34.8711 133.357 30.3136 128.994C27.7161 124.253 27.6041 118.701 28.3709 113.456C29.1376 108.212 30.7226 103.08 31.3419 97.8191C31.9453 92.6944 31.6247 87.5088 32.2147 82.3828C32.8047 77.2568 34.4356 72.0074 38.3086 68.2234C41.373 65.2295 44.4374 62.2356 47.5018 59.2416C48.3268 58.4356 49.1965 57.6019 50.3374 57.2238C51.4783 56.8456 52.9698 57.0861 53.5565 58.0475C54.2798 57.2346 55.1262 56.3584 56.2744 56.2497C57.4226 56.141 58.621 57.4117 57.8838 58.2143C59.2049 57.1302 59.2885 55.2216 58.642 53.7188Z" fill="white"/>
<path fill-rule="evenodd" clip-rule="evenodd" d="M83.0729 66.4755C89.3075 72.1528 94.3999 78.8506 98.028 86.1452C100.331 90.7754 102.041 95.6246 103.746 100.461C104.413 102.354 105.089 104.337 104.717 106.294C103.962 110.269 99.1884 112.611 94.7541 113.082C89.2332 113.668 83.8345 111.909 79.4526 108.819C77.112 115.394 74.4215 122.88 77.0823 129.355C77.3234 129.942 77.9523 130.606 77.6843 131.173C77.319 131.947 75.8827 132.578 75.024 132.933C74.7979 133.027 75.4015 131.092 75.3752 128.253C75.3304 123.422 73.088 106.636 78.3665 107.745C91.2586 110.453 100.979 110.033 101.182 107.144C102.217 92.4761 82.4263 63.7495 83.0729 66.4755Z" fill="#E7EAEE"/>
<path fill-rule="evenodd" clip-rule="evenodd" d="M57.1645 53.7188C56.6577 52.5406 55.7955 51.5317 54.9359 50.5257C54.699 50.2485 54.4623 49.9716 54.2333 49.6914C51.399 46.2231 49.6413 42.0445 49.2108 37.7511C48.981 35.4591 49.8537 24.2722 54.469 21.6478C52.1904 21.0141 49.8537 20.3532 47.9847 19.0161C46.1157 17.6789 44.7931 15.4928 45.296 13.3875C46.0572 10.2011 50.6384 8.83307 54.0556 9.88039C57.4728 10.9277 59.9309 13.5773 62.2053 16.108C63.4031 16.0169 64.105 15.0977 64.8258 14.1539C65.4136 13.3841 66.014 12.5978 66.9062 12.2309C68.2461 11.6799 69.8037 12.2448 71.1026 12.8707C74.8826 14.6922 78.423 17.19 80.4217 20.6131C82.4204 24.0363 82.5934 28.5047 80.0467 31.6168C80.9744 30.6574 82.8968 31.8506 82.7869 33.1206C82.6771 34.3906 81.4352 35.3122 80.2496 36.0018L80.0593 36.1121C78.9254 36.7688 77.7142 37.4703 77.2707 38.6078C76.0914 41.6323 74.2178 44.4343 71.8032 46.7847C71.4105 47.1669 71.0025 47.5389 70.5943 47.9109L70.5943 47.9109L70.5943 47.9109C69.4688 48.9368 68.343 49.963 67.54 51.2044C66.4458 52.8959 66.0802 55.1692 67.3566 56.7532C69.0537 55.1214 71.9789 54.6626 74.1856 55.682C76.3924 56.7014 77.693 59.1124 77.2221 61.3106C80.2969 61.5489 83.0595 63.7496 83.7061 66.4756C89.9407 72.1529 95.0332 78.8507 98.6612 86.1452C100.964 90.7755 102.674 95.6247 104.379 100.461C105.047 102.354 105.722 104.337 105.35 106.294C104.596 110.27 99.8217 112.611 95.3874 113.082C89.8664 113.668 84.1135 112.213 79.7317 109.123C77.3911 115.698 75.0547 122.88 77.7155 129.356C77.9511 129.929 77.8945 130.534 77.6419 131.091C75.9092 127.69 75.5919 123.807 76.0553 120.085C76.5225 116.333 77.744 112.695 78.9597 109.082C79.1613 108.483 78.1079 108.325 77.4211 108.24C76.2017 108.089 75.3167 107.15 74.5541 106.277L71.4533 102.729C69.452 100.439 67.1446 97.9809 63.9522 97.5374C63.0669 97.4144 62.171 97.4591 61.2738 97.5039C60.7272 97.5312 60.1801 97.5585 59.6345 97.548C57.5159 97.507 55.4157 96.877 53.6908 95.7651C53.2772 95.4985 52.8574 95.1645 52.7725 94.712C52.6896 94.2698 53.1317 93.7517 53.6013 93.8643L53.6346 93.8733C53.6276 93.8712 53.6207 93.8692 53.6137 93.8674L53.6013 93.8643C52.1067 93.4569 50.6834 92.8366 49.4002 92.0334C49.1637 91.8853 48.9225 91.7211 48.8006 91.4857C48.5373 90.977 48.9731 90.3538 49.5475 90.1391C50.1219 89.9244 50.7724 90.0027 51.3874 90.0846C50.6538 89.9499 49.8974 89.8067 49.2826 89.4208C48.6679 89.0349 48.2274 88.3381 48.4177 87.6841C48.6081 87.0301 49.6058 86.6253 50.1683 87.0715C49.923 86.4111 50.4549 85.6797 51.151 85.3801C51.8471 85.0805 52.6537 85.1041 53.4235 85.1425C56.6538 85.3035 59.8749 85.6149 63.0697 86.075L62.6017 80.1381C62.5827 79.896 62.5595 79.6423 62.4142 79.4381C62.228 79.1766 61.8836 79.0518 61.5609 78.9438C55.0579 76.7675 48.368 75.0472 41.5712 73.8034L43.0938 99.5725C43.1405 100.363 43.3841 101.365 44.2484 101.493C49.6182 102.292 54.8856 103.651 59.9123 105.534C60.6183 105.799 61.1347 104.906 61.2646 104.225L62.5526 97.4815C62.7317 100.332 62.2802 103.214 61.2326 105.908C62.0338 106.079 62.4974 105.123 62.6255 104.388L63.7887 97.7236C63.9868 100.086 63.7582 102.477 63.1145 104.774C62.9667 105.302 62.7422 105.885 62.1962 106.114C61.7342 106.309 61.193 106.183 60.7038 106.054L43.6947 101.573C43.4273 101.502 43.1481 101.426 42.9499 101.249C42.6548 100.986 42.6145 100.575 42.5917 100.201L41.1762 76.9657C41.0844 75.4595 41.1755 73.9496 41.2667 72.4433L41.7332 64.7291C38.9954 73.4413 38.7369 82.6761 39.8903 91.6724C41.0436 100.669 43.577 109.472 46.3527 118.174C45.1849 116.37 44.3319 114.399 43.8349 112.357C42.4772 114.113 41.0527 116.114 41.44 118.226C42.0906 121.774 41.6758 125.477 40.2515 128.835C39.9267 129.601 40.5107 130.485 41.3103 130.873C42.1099 131.262 43.0583 131.281 43.9662 131.291L56.0527 131.427C55.7193 131.044 55.8396 130.41 56.2948 130.15C56.173 131.337 57.8577 131.895 59.165 132.056C65.3407 132.815 71.9056 133.526 77.5816 131.216C77.2033 131.953 76.4841 132.591 75.6573 132.933C74.1687 133.549 72.4554 133.459 70.822 133.357L43.3563 131.637C41.4377 131.517 38.8147 130.498 39.4937 128.872C41.0102 125.242 41.4436 121.249 40.7361 117.422C40.1963 119.999 39.2603 122.508 37.9634 124.855C38.4954 120.937 39.9496 117.122 42.2016 113.739C43.8045 111.331 42.8811 108.266 42.0577 105.556C38.1597 92.7264 37.5554 79.0896 40.3057 66.0193C34.4359 69.8954 31.9853 76.7733 31.2891 83.3113C30.998 86.0448 30.9498 88.7973 30.9017 91.548C30.8348 95.3765 30.7679 99.2016 30.0461 102.968C29.7163 104.688 29.251 106.389 28.7861 108.088C28.0515 110.772 27.3178 113.454 27.1207 116.207C26.8128 120.506 27.8274 124.783 28.8361 128.994C26.2386 124.253 26.1266 118.701 26.8933 113.456C27.2452 111.049 27.7694 108.666 28.2936 106.283C28.9115 103.474 29.5293 100.665 29.8644 97.8191C30.1683 95.2381 30.2378 92.6416 30.3073 90.0451C30.3758 87.4862 30.4443 84.9271 30.7372 82.3828C31.3272 77.2568 32.9581 72.0074 36.8311 68.2234L46.0242 59.2416C46.8493 58.4356 47.719 57.6019 48.8599 57.2238C50.0008 56.8456 51.4922 57.0861 52.079 58.0475C52.8023 57.2346 53.6486 56.3584 54.7969 56.2497C55.9451 56.141 57.1435 57.4117 56.4063 58.2143C57.7274 57.1302 57.8109 55.2216 57.1645 53.7188ZM77.5816 131.216C77.6028 131.174 77.6229 131.133 77.6419 131.091L77.6844 131.173C77.6501 131.188 77.6159 131.202 77.5816 131.216ZM104.722 104.12C105.034 106.461 103.644 108.815 101.582 110.261C99.5201 111.707 96.8801 112.343 94.2758 112.505C88.7924 112.845 83.1877 111.147 79.0404 107.888C82.2241 104.941 82.4019 99.762 79.4265 96.6417C81.9864 95.5659 84.6037 94.4753 87.4101 94.1965C90.2164 93.9178 93.2962 94.5906 95.1205 96.5371C95.4322 96.8697 95.702 97.2325 95.9715 97.595C96.3025 98.0403 96.6332 98.4851 97.0411 98.8732C96.6877 96.7625 94.8663 94.9995 92.6861 94.1761C90.5059 93.3526 88.0257 93.371 85.7189 93.8343C83.4121 94.2976 81.2392 95.1811 79.085 96.0587C78.6754 96.2256 78.369 95.6931 78.3024 95.2917L77.9164 92.9657C77.7573 92.007 77.7742 90.7521 78.7741 90.4C79.5251 90.1356 79.3282 89.1006 78.8311 88.5273C78.7478 88.4313 78.6587 88.3347 78.5686 88.2372C78.1211 87.7528 77.6512 87.2443 77.7698 86.6476C79.0298 80.3107 80.2968 73.9485 82.5389 67.8371C82.6084 67.6478 82.6928 67.4426 82.8839 67.3425C83.1421 67.2073 83.4683 67.3243 83.7281 67.4569C85.8286 68.5292 87.0839 70.4449 88.3364 72.3564L88.3364 72.3564C88.7785 73.0311 89.2202 73.7052 89.6986 74.3415C90.4366 75.323 91.282 76.2317 92.1277 77.1406L92.1278 77.1407L92.1278 77.1408L92.1279 77.1409L92.1279 77.1409L92.128 77.141L92.128 77.1411L92.1281 77.1411L92.1281 77.1412L92.1282 77.1413L92.1282 77.1413L92.1283 77.1414L92.1283 77.1415L92.1283 77.1415L92.1284 77.1416C92.7565 77.8167 93.3848 78.4921 93.9694 79.1975C97.5724 83.5456 99.34 88.7756 101.111 94.0165L101.111 94.0166C101.919 96.4073 102.728 98.8003 103.712 101.113C103.752 101.207 103.792 101.301 103.833 101.395C104.213 102.282 104.597 103.177 104.722 104.12ZM76.4929 90.4347C77.007 90.4303 77.5453 90.4204 77.9954 90.1961C78.4456 89.9717 78.7638 89.4579 78.5555 89.0333C78.3578 88.6302 77.7881 88.4849 77.3042 88.5421C77.0238 88.5752 76.7558 88.658 76.4875 88.7409L76.4873 88.7409L76.4872 88.741C76.2925 88.8012 76.0975 88.8614 75.8975 88.9027C74.9012 89.1086 73.8843 88.8373 72.8729 88.5674C71.778 88.2753 70.6896 87.9849 69.6409 88.3036C70.3192 87.2892 70.2745 86.0344 70.2319 84.8424L70.2254 84.6559C70.01 78.3255 71.5648 71.9521 74.706 66.2899C73.5465 67.0391 72.7144 68.1908 72.4218 69.4512C72.387 69.6008 72.3593 69.7527 72.3316 69.9045L72.3316 69.9046C72.2604 70.2948 72.1892 70.6848 71.9986 71.0381C71.2261 72.47 69.0446 72.576 67.2885 72.4329C65.8493 72.3157 64.341 72.145 63.1688 71.3816C62.5809 70.9987 62.1075 70.4847 61.6368 69.9735C61.0101 69.293 60.388 68.6175 59.5064 68.2631C58.0441 67.6754 56.4813 68.1652 54.9001 68.6607C53.4716 69.1084 52.0282 69.5608 50.6301 69.2278C49.8423 69.0401 49.2975 69.9138 49.061 70.6181L48.0308 73.6867C47.5503 72.0093 48.1373 70.1171 49.5128 68.9097C48.9237 68.5607 49.0823 67.844 49.2394 67.1345C49.3985 66.4158 49.556 65.7045 48.9332 65.3898C47.0532 64.4397 46.6812 62.1833 46.5207 60.2427C44.1288 61.0406 42.7642 63.3761 42.3436 65.6479C42.0957 66.9869 42.0985 68.346 42.1014 69.7065C42.1034 70.6542 42.1054 71.6025 42.0227 72.5452C49.2342 73.8205 56.3423 75.5724 63.2716 77.7823C63.6958 77.9176 64.1414 78.0683 64.4244 78.3842C64.7288 78.724 64.7856 79.1871 64.8304 79.6224C65.0566 81.8235 65.2702 84.1156 64.3984 86.1811L64.4058 79.7442C64.4063 79.3879 64.3388 78.9417 63.9633 78.8325C63.3792 78.6627 63.1053 79.4689 63.1535 80.0216L63.5706 84.8065C63.6277 85.4615 63.7331 86.1994 64.3166 86.5917L53.8322 85.6402C52.7431 85.5414 51.438 85.525 50.8009 86.3291C50.9058 87.0984 51.9238 87.4212 52.7638 87.5795L59.4376 88.8365C57.3492 89.2265 55.1542 88.8766 53.1784 88.1517C53.0286 88.0968 52.8793 88.0396 52.7298 87.9823L52.7288 87.9819C52.1032 87.7423 51.4754 87.5017 50.8048 87.4217C49.9735 87.3226 49.0342 87.5272 48.5514 88.1465C51.5374 89.9304 55.0077 91.0474 58.5697 91.3712C58.5481 91.7204 58.0326 91.8249 57.6465 91.7995C56.6418 91.7334 55.6756 91.4672 54.7085 91.2007C54.2596 91.0771 53.8105 90.9533 53.3572 90.8495C51.9275 90.5221 50.3248 90.4137 49.0557 91.0926C51.9121 93.1972 55.6786 93.9286 59.29 94.5955L53.3101 94.4804C54.3677 96.1805 56.7406 96.8068 58.8964 96.9099C59.5338 96.9404 60.1771 96.9396 60.82 96.9389C62.3514 96.937 63.8812 96.9352 65.3286 97.3558C67.9559 98.1193 69.859 100.133 71.6166 102.056L75.0058 105.763C75.4679 106.268 76.3485 106.324 77.0015 106.038C77.6545 105.752 78.1154 105.201 78.4765 104.633C79.1941 103.503 79.621 102.177 79.3894 100.891C79.1577 99.6055 78.1759 98.3908 76.7923 98.0243C74.4156 97.3947 72.7283 95.4866 71.562 93.5127C71.1616 92.8352 70.8019 92.1361 70.4424 91.4375L70.4424 91.4374C69.7547 90.1008 69.0677 88.7658 68.0984 87.5859C67.8078 87.2322 67.4913 86.8911 67.1748 86.5502C66.3925 85.7074 65.6108 84.8652 65.2238 83.8339C67.2149 85.5743 68.9047 87.5954 70.2133 89.8016C70.3551 90.0407 70.5116 90.2988 70.7856 90.41C70.9611 90.4811 71.1605 90.4807 71.3529 90.4791L76.4929 90.4347ZM75.945 36.4654C76.4261 36.4088 76.8066 36.083 77.1506 35.7739L78.8248 34.2696C75.7322 41.1923 71.3157 47.8854 64.6209 52.2616C63.2616 53.1501 61.6458 53.9685 59.9942 53.7019C59.129 53.5622 58.353 53.1335 57.6649 52.6396C56.2319 51.6111 55.0982 50.2793 54.1286 48.877C51.3913 44.9179 49.8714 40.2651 49.8945 35.5973C49.9175 30.9294 51.4978 26.2637 54.4552 22.4359C54.5569 22.3043 54.6709 22.1662 54.8388 22.1138C55.0092 22.0606 55.1957 22.1078 55.3682 22.1551C61.5667 23.8573 67.706 25.7355 73.774 27.786C74.7346 28.1106 75.1344 29.1319 75.309 30.0449C75.6686 31.9252 75.5728 33.8756 75.0301 35.7197C74.9055 36.1433 75.4639 36.5219 75.945 36.4654ZM71.9006 22.4694C72.6317 22.4753 73.1416 23.3587 72.7283 23.9036C72.3151 24.4485 71.2191 24.3381 70.949 23.7243C70.6459 23.0359 69.8643 22.6622 69.1269 22.3097C69.0487 22.2723 68.9709 22.2351 68.8943 22.1978C66.4162 20.9921 64.5112 19.0774 62.6154 17.1721C62.1181 16.6723 61.6214 16.173 61.1151 15.6874C60.1533 14.7648 59.1446 13.8822 58.0931 13.0433C56.94 12.1232 55.7164 11.245 54.3044 10.6929C52.8925 10.1408 51.2599 9.93961 49.8068 10.3964C50.4614 10.4264 50.9742 11.1002 50.7708 11.6631C50.5674 12.2259 49.7132 12.4966 49.1652 12.1719C48.6171 11.8472 48.5516 11.0316 49.042 10.6388C47.556 11.0362 46.3074 12.0978 45.7784 13.4136C45.6741 13.6731 45.5966 13.96 45.692 14.2222C45.7458 14.3701 45.8513 14.5014 45.9557 14.6312C46.1031 14.8146 46.248 14.995 46.2414 15.2148C46.1877 16.9739 48.0943 18.5667 50.0315 18.3811C50.411 18.3447 50.5638 18.6865 50.7224 19.0411C50.7981 19.2103 50.875 19.3824 50.9785 19.5177C51.1634 19.7594 51.4723 19.8941 51.7681 20.0163C54.7748 21.2587 57.886 22.2947 61.066 23.1124C61.4345 23.2072 61.939 23.2467 62.0953 22.9307C62.305 22.5066 62.9144 22.2864 63.39 22.4629C63.8655 22.6394 64.1277 23.1829 63.9469 23.6177C63.8658 23.8125 64.1316 23.9705 64.3482 24.0412L75.1811 27.5794C74.9813 26.8552 75.9998 26.1353 76.7299 26.4848C77.46 26.8342 77.3727 27.9997 76.5971 28.2571L80.5564 30.0606L81.2673 24.8119C81.3005 24.5667 81.192 24.202 80.9298 24.2722C80.444 24.4021 79.8714 24.154 79.6796 23.7304C79.4877 23.3068 79.7037 22.7672 80.151 22.5523C80.4953 22.387 80.6236 21.9794 80.5474 21.6339C80.4713 21.2884 80.2358 20.9914 80.0007 20.7103C77.458 17.6697 74.237 15.081 70.5428 13.2413C69.5527 12.7483 68.3525 12.304 67.3293 12.7384C66.737 12.9899 66.3386 13.4849 65.9492 13.9687L65.9488 13.9691L65.9486 13.9694L65.9484 13.9697L65.9482 13.97L65.9479 13.9703L65.9477 13.9705L65.9475 13.9708L65.9472 13.9711L65.947 13.9714L65.9468 13.9717L65.9466 13.9719C65.8855 14.0479 65.8246 14.1235 65.7632 14.1978C64.9842 15.1412 64.0203 15.9597 62.9298 16.6037L66.3815 19.776C66.0961 19.2193 66.5305 18.4692 67.1996 18.3637C67.8687 18.2582 68.5588 18.8309 68.499 19.4421C68.4392 20.0533 67.6486 20.5078 67.0104 20.2979C68.4518 21.35 70.0475 22.4545 71.9006 22.4694ZM76.2944 65.438C76.819 65.4728 77.3517 65.1882 77.5707 64.7562C77.7898 64.3242 77.6804 63.774 77.3087 63.4378C76.8443 63.0178 77.3821 62.2334 78.0358 62.1724C78.6894 62.1114 79.2834 62.4886 79.8073 62.847L82.3329 64.5742C82.6392 64.7836 82.9826 65.0966 82.8487 65.4218C79.9641 72.4291 78.068 79.768 77.2206 87.2049C77.1519 87.8077 76.5088 88.2515 75.8487 88.3595C75.1886 88.4675 74.5142 88.3163 73.8643 88.166L71.5407 87.6289C71.3829 87.5925 71.2175 87.5523 71.1002 87.4502C70.9324 87.3044 70.9066 87.0737 70.8928 86.8638C70.4207 79.7023 72.0513 72.4362 75.5737 66.0063C75.7243 65.7314 75.9558 65.4156 76.2944 65.438ZM71.1765 60.9463C70.5478 60.5177 70.692 59.4715 71.4178 59.1954C69.6213 59.3356 67.9823 60.0589 66.3416 60.7829C64.7592 61.4813 63.1754 62.1802 61.4472 62.3573C62.4857 62.9939 62.9758 64.2137 62.835 65.3402C62.6943 66.4667 61.9958 67.4924 61.0882 68.2753C61.8653 69.6197 63.1488 70.72 64.6758 71.3506C65.2139 71.5728 65.8305 71.7388 66.3909 71.5674C66.5131 71.53 66.6436 71.48 66.7763 71.4292C67.2602 71.2439 67.7728 71.0476 68.0157 71.4118C68.4711 72.0948 69.6337 71.9382 70.3879 71.5238C70.903 71.2407 71.3824 70.8573 71.5945 70.3474C71.8066 69.8376 71.681 69.1864 71.1851 68.8765C70.7733 68.619 70.6348 68.0632 70.8849 67.6711C71.1349 67.2791 71.7367 67.1086 72.1898 67.3013C72.5854 67.4696 72.9558 67.0501 73.1921 66.7177C73.7483 65.9352 74.5678 65.3076 75.5134 64.9399C75.1348 64.4371 75.1879 63.7038 75.6359 63.2499C74.4787 62.4858 73.5504 61.4417 72.9741 60.2562C72.8793 60.9625 71.8052 61.3748 71.1765 60.9463ZM55.852 58.211C55.8377 58.2955 55.8234 58.3797 55.8122 58.4635C55.7601 58.8537 55.8066 59.3077 56.1529 59.5457C57.474 58.0992 58.2506 56.254 58.3271 54.3799C58.3424 54.0056 58.9706 54.0597 59.3622 54.183C60.5182 54.5468 61.8161 54.3653 62.9374 53.9217C64.0588 53.478 65.0373 52.791 66.0028 52.1112C65.7201 53.8103 65.9662 55.5787 66.7057 57.1618L62.8889 59.751C62.738 59.8534 62.5965 60.0881 62.7694 60.1564C64.2158 59.7327 65.4438 58.8712 66.6465 58.0275L66.7592 57.9484C67.998 57.0799 69.2948 56.2087 70.8128 55.8535C72.3308 55.4982 74.1372 55.7785 75.1046 56.8934C75.5814 57.4429 75.8095 58.1305 76.0278 58.8003L76.7037 60.8747C76.8502 61.3243 76.9942 61.8199 76.7832 62.2481C76.5722 62.6762 75.83 62.8872 75.5339 62.5023L74.15 60.7037C73.4907 59.8468 72.7429 58.9313 71.6296 58.6532C70.4149 58.3499 69.1624 58.8981 68.033 59.403C66.0539 60.2878 64.0277 61.0866 61.9637 61.7956C61.3291 62.0136 60.6252 61.8008 59.9366 61.5926C59.1526 61.3556 58.3885 61.1246 57.7689 61.542C57.5389 61.6969 57.2138 61.6122 56.9487 61.5132C55.1254 60.8326 53.492 59.7412 52.2379 58.3655L54.8636 56.8248C55.2285 56.6107 55.736 56.9182 55.8599 57.295C55.9572 57.5909 55.9044 57.9021 55.852 58.211ZM57.7825 67.4018C56.5877 66.5193 56.0102 65.0066 56.349 63.6465C56.4351 63.3008 56.0373 63.0331 55.7158 62.83C55.3944 62.627 55.076 62.2312 55.3242 61.9568C55.4578 61.809 55.2756 61.6019 55.1086 61.485L51.8959 59.2351C51.5105 58.9652 51.113 58.6824 50.8906 58.2904C50.4884 57.5817 49.4149 57.262 48.625 57.6157C47.5034 58.118 47.347 59.4799 47.3409 60.6108C47.3395 60.8773 47.4225 61.2311 47.717 61.2462C48.47 61.2847 48.8264 62.3408 48.2252 62.7522C47.6365 63.1551 48.0567 64.0287 48.6422 64.4354C48.77 64.5241 48.9068 64.6092 49.0442 64.6946C49.5368 65.0008 50.0382 65.3125 50.1666 65.8211C50.2621 66.1997 50.1208 66.6009 49.9828 66.9929C49.8102 67.483 49.6427 67.9585 49.9499 68.357C50.326 68.8448 51.1282 68.7974 51.775 68.6878C53.7985 68.3452 55.804 67.9158 57.7825 67.4018ZM72.0594 91.0495C73.5156 90.9434 74.9816 90.946 76.4373 91.0572C76.5593 91.0665 76.6883 91.0789 76.7863 91.1453C76.9372 91.2475 76.9643 91.4385 76.9813 91.6082C77.1205 93.0017 77.4136 94.3827 77.8546 95.724C77.7861 95.8885 77.5915 95.9284 77.3892 95.9698C77.2572 95.9969 77.1219 96.0246 77.0162 96.088C76.6749 96.2928 76.7744 96.7832 77.028 97.074C77.1176 97.1768 77.2215 97.2707 77.3251 97.3643C77.5147 97.5356 77.7032 97.706 77.8016 97.9282C74.6787 97.0445 72.4021 94.5179 71.1859 91.7734C71.1122 91.6071 71.0411 91.4217 71.1081 91.2531C71.175 91.0845 71.4506 90.9851 71.5768 91.1232C71.6266 91.1777 71.6393 91.2515 71.6501 91.3214L71.8627 92.6928C71.8905 92.872 72.2153 92.8739 72.3254 92.7227C72.4354 92.5716 72.3948 92.3723 72.3501 92.196L72.0594 91.0495ZM61.9366 64.0695C61.5171 62.9775 60.3869 62.1359 59.1202 61.9723C58.6566 61.9124 58.1341 61.955 57.8022 62.2534C57.0727 62.9094 56.7845 63.9099 56.9557 64.8268C57.1268 65.7437 57.7227 66.5712 58.5083 67.1719C59.0956 67.621 59.9236 67.9608 60.6207 67.6669C60.8283 67.5794 61.0055 67.4418 61.1634 67.2919C62.0458 66.4548 62.356 65.1616 61.9366 64.0695ZM75.8559 35.2671C76.2003 33.1015 76.5207 30.7663 75.3889 28.832C75.3101 28.6974 75.2288 28.5202 75.3416 28.4071L78.8946 29.9974C79.1764 30.1235 79.51 30.3676 79.3789 30.6258C79.2259 30.9273 79.1968 31.2606 79.1678 31.5942C79.1555 31.7352 79.1432 31.8762 79.1216 32.015C78.9907 32.8539 78.508 33.6223 77.8959 34.2641C77.2838 34.906 76.5434 35.4358 75.8079 35.9614C75.7827 35.7301 75.8193 35.4973 75.8559 35.2671ZM79.4335 97.4624C79.0257 96.944 78.4808 96.4361 77.7803 96.373C77.5101 96.3486 77.1465 96.5964 77.3428 96.7659C79.0393 98.2311 80.1755 100.328 79.9654 102.44C79.7553 104.551 77.9918 106.567 75.6719 106.888C76.3582 107.625 77.6673 107.682 78.5973 107.212C79.5272 106.743 80.1253 105.869 80.5024 104.969C81.5318 102.512 81.1176 99.6035 79.4335 97.4624ZM43.0202 73.1368C45.5939 73.5011 48.105 74.1548 50.6081 74.8068L57.429 76.5837C59.505 77.1245 61.6044 77.6741 63.4765 78.6484C62.5885 78.6192 61.7251 78.3901 60.8753 78.1554C59.3728 77.7405 57.8752 77.3023 56.3774 76.864L56.3773 76.8639C51.5184 75.4422 46.6561 74.0193 41.6078 73.3862C41.9302 73.0375 42.5233 73.0665 43.0202 73.1368ZM80.3139 32.1942C79.9233 32.5112 79.7366 32.9842 79.6244 33.4476C79.5915 33.5837 79.5636 33.7212 79.5356 33.8586C79.4684 34.1891 79.4013 34.5195 79.2646 34.831C79.2422 34.8821 79.2178 34.9337 79.1933 34.9856C79.0703 35.2461 78.943 35.5155 79.0349 35.7784C80.5081 35.6929 81.841 34.6207 82.1051 33.3086C82.1937 32.8682 82.1411 32.351 81.7551 32.0703C81.346 31.7729 80.7046 31.8772 80.3139 32.1942ZM72.7712 14.9683C72.9407 15.4029 72.6848 15.9363 72.2179 16.1218C71.7509 16.3073 71.1428 16.117 70.9029 15.7104C70.6388 15.2627 70.88 14.6334 71.3941 14.4293C71.9082 14.2251 72.5845 14.4898 72.7712 14.9683ZM55.2335 15.3785C55.2627 14.9833 54.988 14.5847 54.5826 14.4339C54.0667 14.2419 53.4034 14.4972 53.1992 14.9663C52.9949 15.4353 53.288 16.0304 53.8105 16.2074C54.4239 16.4152 55.1899 15.969 55.2335 15.3785ZM75.1878 19.3591C75.2023 19.8591 75.7101 20.3047 76.2638 20.3034C76.851 20.3019 77.3743 19.7918 77.3313 19.2627C77.2908 18.764 76.7604 18.3404 76.2074 18.3652C75.6545 18.3901 75.1733 18.8592 75.1878 19.3591ZM59.4061 19.9397C59.0047 20.3928 58.1284 20.394 57.7255 19.9419C57.3226 19.4898 57.511 18.7167 58.0868 18.4592C58.6626 18.2018 59.4573 18.5352 59.611 19.0988C59.6897 19.3874 59.6117 19.7075 59.4061 19.9397ZM56.1507 27.4932C55.811 27.9726 55.7385 28.5985 55.9609 29.1311C56.0434 29.3286 56.1663 29.5156 56.3408 29.6559C56.9009 30.106 57.8585 29.9158 58.33 29.3893C58.8014 28.8628 58.8663 28.1199 58.7273 27.4545C58.6718 27.1892 58.5697 26.906 58.3191 26.7589C58.1446 26.6565 57.9252 26.638 57.7177 26.6515C57.0891 26.6921 56.4904 27.0137 56.1507 27.4932ZM67.4304 32.4003C67.2453 32.2293 67.1231 32.009 67.0472 31.7799C66.7661 30.9304 67.162 29.9353 67.9775 29.4419C68.3463 29.2187 68.8218 29.0948 69.2392 29.2313C69.7509 29.3988 70.0321 29.9032 70.1292 30.387C70.2682 31.0793 70.1011 31.8553 69.5368 32.3404C68.9725 32.8254 67.9753 32.9031 67.4304 32.4003ZM53.299 41.9509C53.3178 41.5231 53.3563 41.0961 53.4143 40.6712C53.4344 40.5239 53.5754 40.3974 53.7386 40.3802C53.8141 41.4282 53.8493 42.4785 53.8441 43.5286C53.331 43.1889 53.2738 42.5251 53.299 41.9509ZM72.3573 37.4016C72.2031 36.7645 71.6734 36.2121 70.9975 35.9832C70.8844 35.9449 70.8895 35.7816 70.9846 35.7143C71.0797 35.647 71.2149 35.6538 71.3322 35.6797C71.975 35.8215 72.3726 36.3913 72.6666 36.9268C72.7443 37.0685 72.8208 37.2337 72.7523 37.3792C72.6839 37.5248 72.3947 37.5561 72.3573 37.4016ZM60.6038 130.247C60.5361 130.109 60.3645 130.043 60.2077 129.992C57.7525 129.183 55.1458 128.751 52.5328 128.721C52.1603 128.716 51.7252 128.749 51.5201 129.03C51.7196 129.181 52.0061 129.181 52.2668 129.178C55.0334 129.14 57.8073 129.604 60.3757 130.534C60.5306 130.59 60.6714 130.385 60.6038 130.247ZM61.9637 33.6062C61.816 33.7161 61.653 33.8077 61.49 33.8992C61.3061 34.0026 61.1222 34.1059 60.9606 34.2354C60.6558 34.4798 60.4353 34.8749 60.593 35.2144C60.7877 35.6337 61.4132 35.713 61.9086 35.6323L61.9709 35.6218C62.1275 35.5951 62.2876 35.5679 62.4401 35.6056C62.6128 35.6483 62.7646 35.8127 62.7054 35.9654C62.6638 36.0726 62.5393 36.1324 62.4222 36.1738C61.6964 36.4302 60.7905 36.3348 60.252 35.8259C59.7135 35.3169 59.7 34.385 60.3151 33.9527L62.7182 32.2638C62.6936 32.7802 62.4054 33.2776 61.9637 33.6062ZM71.166 37.9657C71.3152 38.7282 71.0989 39.5119 70.7925 40.2351C69.4734 43.3491 66.3586 45.7896 62.7595 46.529C61.3111 46.8265 59.7133 46.844 58.4243 46.1771C57.1354 45.5102 56.3068 44.0103 56.872 42.7694C57.5354 41.313 59.5894 40.9046 61.3324 40.8715C61.4851 40.8686 61.6394 40.8666 61.7947 40.8645C63.4122 40.8428 65.1388 40.8196 66.3094 39.8467C66.7259 39.5006 67.0264 39.065 67.3275 38.6285C67.5813 38.2607 67.8355 37.8922 68.1599 37.5762C68.8692 36.8853 70.2585 36.5552 70.8819 37.3107C71.0384 37.5004 71.1204 37.7326 71.166 37.9657ZM70.4253 39.1277C70.605 38.5071 70.5261 37.6143 69.8236 37.5205C69.5623 37.4857 69.3019 37.5913 69.0849 37.7273C68.5451 38.0656 68.1992 38.5753 67.8513 39.0877C67.5752 39.4944 67.2979 39.9029 66.9216 40.2288C65.9389 41.0801 64.469 41.2307 63.1125 41.3368L60.5057 41.5407C59.8408 41.5927 59.1518 41.6513 58.5731 41.9517C57.4862 42.5159 57.1093 43.9583 57.8022 44.902C58.5514 45.9226 60.1137 46.1442 61.463 46.0263C65.6222 45.6629 69.368 42.7797 70.4253 39.1277ZM71.9108 86.8312C71.7694 86.8459 71.6223 86.8098 71.5085 86.7326C71.4316 86.6803 71.3698 86.6098 71.3312 86.5302C71.2056 86.271 71.3752 85.9301 71.6732 85.8429C71.9712 85.7557 72.3298 85.942 72.3963 86.2185C72.4628 86.495 72.222 86.7989 71.9108 86.8312ZM76.7327 86.8663C76.6299 86.7849 76.4924 86.7402 76.3558 86.744C76.0197 86.7531 75.7499 87.0956 75.8504 87.3854C75.9509 87.6752 76.3889 87.8173 76.6706 87.6516C76.9523 87.4859 76.9854 87.0665 76.7327 86.8663ZM66.5957 64.8039C66.2465 64.4408 66.2764 63.8309 66.6597 63.4972C67.043 63.1635 67.7187 63.1589 68.1075 63.4874C68.5227 63.8383 68.5283 64.5083 68.1189 64.8648C67.7095 65.2212 66.9686 65.1916 66.5957 64.8039ZM62.0267 67.8308C61.9467 68.0246 61.94 68.2425 62.0081 68.44C62.2018 69.0017 63.0613 69.269 63.5967 68.9339C64.1321 68.5989 64.1572 67.778 63.6431 67.4168C63.129 67.0556 62.2545 67.2796 62.0267 67.8308ZM52.7817 66.402C52.6612 66.7617 52.2799 67.0373 51.865 67.0647C51.2527 67.105 50.6806 66.556 50.7622 66.0063C50.8438 65.4566 51.5557 65.0631 52.1346 65.2478C52.6316 65.4063 52.9343 65.9463 52.7817 66.402Z" fill="#00160A"/>
</svg>
