<svg width="227" height="226" viewBox="0 0 227 226" fill="none" xmlns="http://www.w3.org/2000/svg">
<circle cx="114" cy="115" r="85" fill="#FF8500"/>
<circle cx="20" cy="15" r="15" fill="#FF8500"/>
<circle cx="217" cy="45" r="10" fill="#FF8500"/>
<circle cx="109" cy="5" r="5" fill="#FF8500"/>
<circle cx="20" cy="176" r="5" fill="#FF8500"/>
<circle cx="78" cy="222" r="4" fill="#FF8500"/>
<circle cx="210" cy="199" r="3" fill="#FF8500"/>
<circle cx="205.5" cy="127.5" r="1.5" fill="#FF8500"/>
<circle cx="150.5" cy="206.5" r="1.5" fill="#FF8500"/>
<circle cx="2.5" cy="91.5" r="2.5" fill="#FF8500"/>
<g clip-path="url(#clip0_815_10608)">
<path d="M119.242 74.0894C117.876 68.6331 110.13 68.6331 108.757 74.0894L108.358 75.6981C108.124 76.633 107.645 77.4884 106.969 78.1754C106.293 78.8624 105.446 79.3561 104.515 79.6052C103.584 79.8543 102.603 79.8497 101.675 79.592C100.746 79.3342 99.9036 78.8327 99.2343 78.1394L98.0811 76.9525C94.1718 72.9081 87.4611 76.7838 89.008 82.1894L89.458 83.7869C89.7224 84.7125 89.7346 85.6919 89.4934 86.6238C89.2521 87.5556 88.7661 88.4061 88.0857 89.087C87.4054 89.768 86.5553 90.2547 85.6237 90.4967C84.692 90.7388 83.7126 90.7274 82.7868 90.4638L81.1893 90.0081C75.7893 88.4613 71.908 95.1719 75.9524 99.0813L77.1393 100.234C77.8326 100.904 78.3341 101.746 78.5919 102.675C78.8496 103.604 78.8542 104.584 78.6051 105.515C78.356 106.446 77.8623 107.293 77.1753 107.969C76.4883 108.645 75.6329 109.124 74.698 109.358L73.0893 109.758C67.633 111.124 67.633 118.87 73.0893 120.243L74.698 120.642C75.6329 120.876 76.4883 121.355 77.1753 122.031C77.8623 122.707 78.356 123.554 78.6051 124.485C78.8542 125.416 78.8496 126.396 78.5919 127.325C78.3341 128.254 77.8326 129.096 77.1393 129.766L75.9524 130.919C71.908 134.828 75.7836 141.539 81.1893 139.992L82.7868 139.542C83.7129 139.277 84.6931 139.265 85.6256 139.506C86.5581 139.748 87.4091 140.234 88.0902 140.915C88.7714 141.596 89.2579 142.447 89.4994 143.38C89.7409 144.312 89.7286 145.293 89.4636 146.219L89.008 147.811C87.4611 153.211 94.1718 157.092 98.0811 153.048L99.2343 151.861C99.9036 151.167 100.746 150.666 101.675 150.408C102.603 150.15 103.584 150.146 104.515 150.395C105.446 150.644 106.293 151.138 106.969 151.825C107.645 152.512 108.124 153.367 108.358 154.302L108.757 155.911C110.124 161.367 117.87 161.367 119.242 155.911L119.642 154.302C119.875 153.367 120.355 152.512 121.031 151.825C121.707 151.138 122.554 150.644 123.485 150.395C124.416 150.146 125.396 150.15 126.325 150.408C127.254 150.666 128.096 151.167 128.766 151.861L129.919 153.048C133.828 157.092 140.539 153.216 138.992 147.811L138.542 146.213C138.277 145.287 138.264 144.307 138.506 143.374C138.747 142.442 139.234 141.591 139.915 140.91C140.596 140.229 141.447 139.742 142.38 139.5C143.312 139.259 144.292 139.271 145.219 139.536L146.811 139.992C152.211 141.539 156.092 134.828 152.047 130.919L150.861 129.766C150.167 129.096 149.666 128.254 149.408 127.325C149.15 126.396 149.146 125.416 149.395 124.485C149.644 123.554 150.137 122.707 150.824 122.031C151.511 121.355 152.367 120.876 153.302 120.642L154.911 120.243C160.367 118.876 160.367 111.13 154.911 109.758L153.302 109.358C152.367 109.124 151.511 108.645 150.824 107.969C150.137 107.293 149.644 106.446 149.395 105.515C149.146 104.584 149.15 103.604 149.408 102.675C149.666 101.746 150.167 100.904 150.861 100.234L152.047 99.0813C156.092 95.1719 152.216 88.4613 146.811 90.0081L145.213 90.4581C144.287 90.7226 143.308 90.7348 142.376 90.4935C141.444 90.2522 140.594 89.7662 139.913 89.0858C139.232 88.4055 138.745 87.5554 138.503 86.6238C138.261 85.6921 138.272 84.7127 138.536 83.7869L138.992 82.1894C140.539 76.7894 133.828 72.9081 129.919 76.9525L128.766 78.1394C128.096 78.8327 127.254 79.3342 126.325 79.592C125.396 79.8497 124.416 79.8543 123.485 79.6052C122.554 79.3561 121.707 78.8624 121.031 78.1754C120.355 77.4884 119.875 76.633 119.642 75.6981L119.242 74.0894ZM114 143.108C110.275 143.161 106.576 142.473 103.12 141.084C99.6629 139.695 96.5167 137.632 93.8639 135.017C91.2111 132.401 89.1045 129.284 87.6667 125.848C86.2289 122.411 85.4885 118.723 85.4885 114.997C85.4885 111.272 86.2289 107.584 87.6667 104.147C89.1045 100.71 91.2111 97.5932 93.8639 94.9777C96.5167 92.3621 99.6629 90.2999 103.12 88.9108C106.576 87.5217 110.275 86.8336 114 86.8863C121.456 86.8863 128.607 89.8482 133.879 95.1206C139.152 100.393 142.114 107.544 142.114 115C142.114 122.456 139.152 129.607 133.879 134.879C128.607 140.152 121.456 143.114 114 143.114V143.108Z" fill="white"/>
<path d="M123.746 104.146C124.235 103.681 124.886 103.424 125.56 103.429C126.235 103.434 126.882 103.701 127.363 104.174C127.845 104.646 128.124 105.288 128.142 105.962C128.16 106.637 127.915 107.292 127.459 107.79L113.614 125.104C113.376 125.36 113.089 125.566 112.77 125.709C112.45 125.852 112.105 125.929 111.755 125.935C111.406 125.942 111.058 125.878 110.734 125.747C110.409 125.616 110.114 125.421 109.867 125.173L100.686 115.992C100.43 115.754 100.225 115.467 100.083 115.147C99.9405 114.828 99.864 114.484 99.8578 114.134C99.8517 113.785 99.9159 113.438 100.047 113.114C100.178 112.79 100.373 112.495 100.62 112.248C100.867 112.001 101.161 111.806 101.485 111.675C101.809 111.544 102.156 111.48 102.506 111.486C102.855 111.492 103.2 111.569 103.519 111.711C103.838 111.853 104.126 112.059 104.364 112.314L111.63 119.577L123.68 104.223C123.702 104.196 123.725 104.17 123.75 104.146H123.746Z" fill="white"/>
</g>
<defs>
<clipPath id="clip0_815_10608">
<rect width="90" height="90" fill="white" transform="translate(69 70)"/>
</clipPath>
</defs>
</svg>
