<svg width="20" height="22" viewBox="0 0 20 22" fill="none" xmlns="http://www.w3.org/2000/svg">
<path d="M12.9836 9.76705C12.1304 8.91417 10.9734 8.43506 9.76698 8.43506C8.56057 8.43506 7.40355 8.91417 6.55031 9.76705L3.3326 12.9837C2.47935 13.837 2 14.9942 2 16.2009C2 17.4076 2.47935 18.5648 3.3326 19.4181C4.18585 20.2713 5.34311 20.7507 6.54979 20.7507C7.75647 20.7507 8.91373 20.2713 9.76698 19.4181L11.3753 17.8098" stroke="#727272" stroke-width="2.08333" stroke-linecap="round" stroke-linejoin="round"/>
<path d="M7.76758 12.9836C8.62081 13.8365 9.77784 14.3156 10.9842 14.3156C12.1907 14.3156 13.3477 13.8365 14.2009 12.9836L17.4186 9.76698C18.2719 8.91373 18.7512 7.75647 18.7512 6.54979C18.7512 5.34311 18.2719 4.18585 17.4186 3.3326C16.5654 2.47935 15.4081 2 14.2014 2C12.9948 2 11.8375 2.47935 10.9842 3.3326L9.37591 4.94094" stroke="#727272" stroke-width="2.08333" stroke-linecap="round" stroke-linejoin="round"/>
</svg>
