<svg width="30" height="30" viewBox="0 0 30 30" fill="none" xmlns="http://www.w3.org/2000/svg">
<path d="M29.971 13.3791C29.805 8.59406 28.5497 4.74094 25.7128 2.63719C22.876 0.533439 18.6131 -0.194998 13.2572 0.0590641C10.8206 0.176252 8.62783 0.494064 6.84565 1.20656C5.01002 1.94344 3.58877 2.98406 2.54908 4.42969C0.459396 7.335 -0.185604 11.7244 0.0440831 16.7784C0.263458 21.5784 1.50377 25.3772 4.37533 27.4472C7.2319 29.5078 11.8706 30.1622 16.7635 29.9522C21.51 29.7516 25.3669 28.4972 27.4322 25.6209C29.4928 22.7494 30.1472 18.5166 29.971 13.38V13.3791ZM8.2519 18.4622H7.63221V17.1338H8.2519C9.43315 17.1338 10.2975 16.2206 10.2975 15.0881C10.2976 14.8195 10.2448 14.5534 10.1421 14.3052C10.0393 14.0569 9.88863 13.8314 9.69865 13.6414C9.50867 13.4514 9.28311 13.3007 9.03487 13.198C8.78663 13.0952 8.52057 13.0424 8.2519 13.0425H6.25502C6.21977 13.0425 6.18546 13.0539 6.15723 13.075C6.12901 13.0962 6.10839 13.1259 6.09846 13.1597V20.4103H4.8094V13.1597C4.8094 12.3638 5.45908 11.7141 6.25502 11.7141H8.2519C10.1175 11.7141 11.6597 13.2281 11.6597 15.0881C11.6597 16.9538 10.2197 18.4622 8.2519 18.4622ZM19.1306 18.4622H17.8266V14.9906C17.7975 14.0091 16.7569 13.0322 15.6488 13.0322C14.4038 13.0322 13.4906 14.0963 13.4906 15.0881C13.4906 16.4991 14.4816 17.1441 15.6488 17.1441H16.1128V18.4622H15.6488C13.7297 18.4622 12.1669 17.2313 12.1669 15.0881C12.1669 13.3453 13.7297 11.7141 15.6488 11.7141C17.3869 11.7141 19.0763 13.1738 19.1306 14.9906V18.4622ZM20.7863 11.9381L22.486 15.4247L21.7491 16.9238L19.3125 11.9381H20.7863ZM22.3631 20.6494H20.8838L25.1663 11.9381H26.6456L22.3631 20.6494Z" fill="#1E4BC6"/>
</svg>
