<svg width="25" height="30" viewBox="0 0 25 30" fill="none" xmlns="http://www.w3.org/2000/svg">
<g clip-path="url(#clip0_955_12580)">
<path d="M21.2046 2.29474C19.8443 0.744343 17.3855 0.0796509 14.2399 0.0796509H5.11051C4.79928 0.0796624 4.49826 0.190697 4.26158 0.392792C4.0249 0.594888 3.86807 0.874786 3.81929 1.18217L0.0179821 25.291C-0.0575755 25.7664 0.310548 26.1969 0.792399 26.1969H6.42857L7.84405 17.2187L7.80012 17.4999C7.90096 16.8653 8.44373 16.3972 9.08646 16.3972H11.7647C17.0263 16.3972 21.1461 14.2601 22.3495 8.07792C22.3853 7.89508 22.4162 7.71712 22.443 7.54326C22.2911 7.46282 22.2911 7.46282 22.443 7.54326C22.8013 5.25828 22.4405 3.7029 21.2046 2.29474Z" fill="#27346A"/>
<path d="M10.0007 6.72013C10.1547 6.64676 10.3233 6.60874 10.4939 6.60884H17.6512C18.4987 6.60884 19.2893 6.664 20.0117 6.78026C20.2138 6.81249 20.4149 6.85097 20.6147 6.89565C20.8978 6.95813 21.1776 7.03459 21.4532 7.12476C21.8083 7.24337 22.1391 7.3815 22.4431 7.54326C22.8013 5.2574 22.4405 3.7029 21.2046 2.29474C19.8436 0.744343 17.3855 0.0796509 14.2399 0.0796509H5.10972C4.4669 0.0796509 3.92003 0.547639 3.81929 1.18217L0.0179827 25.2901C-0.0575749 25.7663 0.310549 26.1962 0.791618 26.1962H6.42857L9.36526 7.57333C9.39413 7.39028 9.46705 7.21699 9.57774 7.06836C9.68842 6.91974 9.83356 6.80023 10.0007 6.72013Z" fill="#27346A"/>
<path d="M22.3496 8.07792C21.1461 14.2592 17.0264 16.3972 11.7648 16.3972H9.08568C8.44295 16.3972 7.90009 16.8653 7.80022 17.4999L6.03926 28.6632C5.97347 29.0792 6.29522 29.4562 6.71616 29.4562H11.4673C11.7395 29.4562 12.0027 29.359 12.2096 29.1822C12.4165 29.0054 12.5535 28.7606 12.5961 28.4917L12.6424 28.2497L13.5378 22.5744L13.5955 22.2608C13.638 21.992 13.7751 21.7472 13.982 21.5704C14.1889 21.3936 14.452 21.2964 14.7242 21.2963H15.4353C20.0377 21.2963 23.6415 19.4265 24.6947 14.0188C25.1343 11.7589 24.9068 9.87207 23.744 8.54679C23.3913 8.14538 22.9532 7.81386 22.443 7.54326C22.4153 7.718 22.3854 7.89508 22.3496 8.07792Z" fill="#2790C3"/>
<path d="M21.1835 7.04111C20.9958 6.98632 20.8064 6.9378 20.6155 6.89566C20.4157 6.85171 20.2146 6.81349 20.0125 6.78105C19.2894 6.664 18.4994 6.60875 17.6511 6.60875H10.4947C10.3239 6.60836 10.1553 6.64672 10.0014 6.72092C9.83415 6.80078 9.68885 6.92021 9.57812 7.06888C9.46738 7.21754 9.39455 7.39096 9.36594 7.57411L7.84483 17.2187L7.8009 17.4999C7.90096 16.8653 8.44373 16.3972 9.08655 16.3972H11.7656C17.0271 16.3972 21.1469 14.2601 22.3503 8.07793C22.3862 7.89509 22.4162 7.71791 22.4438 7.54327C22.1391 7.38239 21.8092 7.24338 21.454 7.12555C21.3643 7.09583 21.2742 7.06768 21.1836 7.04111" fill="#1F264F"/>
</g>
<defs>
<clipPath id="clip0_955_12580">
<rect width="25" height="29.4811" fill="white"/>
</clipPath>
</defs>
</svg>
