<svg width="39" height="30" viewBox="0 0 39 30" fill="none" xmlns="http://www.w3.org/2000/svg">
<g clip-path="url(#clip0_955_12617)">
<path d="M7.01957 29.8509V27.8653C7.01957 27.104 6.55615 26.6077 5.76183 26.6077C5.36475 26.6077 4.9345 26.7401 4.63661 27.1704C4.40505 26.8063 4.07415 26.6077 3.57771 26.6077C3.24666 26.6077 2.9159 26.7069 2.65103 27.071V26.6739H1.95605V29.8509H2.65103V28.0969C2.65103 27.5344 2.94892 27.2696 3.41234 27.2696C3.87545 27.2696 4.10731 27.5674 4.10731 28.0969V29.8509H4.80229V28.0969C4.80229 27.5344 5.13304 27.2696 5.56329 27.2696C6.02671 27.2696 6.25827 27.5674 6.25827 28.0969V29.8509H7.01957ZM17.3117 26.6739H16.1866V25.7142H15.4916V26.6739H14.8628V27.3026H15.4915V28.7588C15.4915 29.487 15.7894 29.9171 16.5837 29.9171C16.8816 29.9171 17.2123 29.8179 17.4442 29.6855L17.2455 29.0898C17.047 29.2221 16.8154 29.2553 16.6499 29.2553C16.319 29.2553 16.1866 29.0567 16.1866 28.7257V27.3026H17.3117V26.6739ZM23.2025 26.6076C22.8055 26.6076 22.5407 26.8063 22.3752 27.071V26.6739H21.6802V29.8509H22.3752V28.0639C22.3752 27.5344 22.6068 27.2365 23.037 27.2365C23.1694 27.2365 23.3349 27.2697 23.4673 27.3027L23.6658 26.6409C23.5334 26.6077 23.3349 26.6077 23.2025 26.6077V26.6076ZM14.3002 26.9386C13.9692 26.7069 13.5059 26.6077 13.0095 26.6077C12.2153 26.6077 11.6859 27.0048 11.6859 27.6336C11.6859 28.1632 12.0829 28.461 12.7779 28.5603L13.1088 28.5935C13.4729 28.6595 13.6714 28.7588 13.6714 28.9244C13.6714 29.1559 13.4067 29.3215 12.9433 29.3215C12.48 29.3215 12.116 29.1559 11.8842 28.9906L11.5533 29.52C11.9174 29.7847 12.4138 29.9171 12.9101 29.9171C13.8368 29.9171 14.3664 29.487 14.3664 28.8912C14.3664 28.3286 13.9362 28.0307 13.2742 27.9315L12.9433 27.8983C12.6454 27.8652 12.4138 27.7991 12.4138 27.6006C12.4138 27.3689 12.6454 27.2365 13.0095 27.2365C13.4067 27.2365 13.8038 27.4019 14.0023 27.5013L14.3002 26.9386ZM32.7668 26.6077C32.3696 26.6077 32.1048 26.8063 31.9393 27.071V26.6739H31.2443V29.8509H31.9393V28.0639C31.9393 27.5344 32.171 27.2365 32.6011 27.2365C32.7336 27.2365 32.8992 27.2697 33.0315 27.3027L33.2301 26.6409C33.0977 26.6077 32.8992 26.6077 32.7668 26.6077ZM23.8975 28.2624C23.8975 29.2221 24.5593 29.9171 25.5854 29.9171C26.0486 29.9171 26.3795 29.8179 26.7104 29.5532L26.3795 28.9906C26.1148 29.1891 25.8501 29.2883 25.5522 29.2883C24.9896 29.2883 24.5925 28.8912 24.5925 28.2624C24.5925 27.6668 24.9896 27.2696 25.5522 27.2365C25.8501 27.2365 26.1148 27.3357 26.3795 27.5344L26.7104 26.9718C26.3795 26.7069 26.0486 26.6077 25.5854 26.6077C24.5593 26.6077 23.8975 27.3027 23.8975 28.2624ZM30.3178 28.2624V26.6739H29.6228V27.071C29.3911 26.7733 29.0602 26.6077 28.63 26.6077C27.7365 26.6077 27.0415 27.3027 27.0415 28.2624C27.0415 29.2221 27.7365 29.9171 28.63 29.9171C29.0932 29.9171 29.4243 29.7517 29.6228 29.4538V29.8509H30.3178V28.2624ZM27.7695 28.2624C27.7695 27.6998 28.1335 27.2365 28.7292 27.2365C29.2918 27.2365 29.689 27.6668 29.689 28.2624C29.689 28.825 29.2918 29.2883 28.7292 29.2883C28.1335 29.2551 27.7695 28.825 27.7695 28.2624ZM19.4629 26.6077C18.5363 26.6077 17.8743 27.2696 17.8743 28.2624C17.8743 29.2553 18.5361 29.9171 19.496 29.9171C19.9592 29.9171 20.4226 29.7847 20.7867 29.487L20.4557 28.9906C20.1909 29.1891 19.86 29.3215 19.5291 29.3215C19.0989 29.3215 18.6686 29.1229 18.5693 28.5602H20.9191V28.2956C20.9522 27.2696 20.3565 26.6077 19.4628 26.6077H19.4629ZM19.4629 27.2034C19.893 27.2034 20.1911 27.4682 20.2571 27.9647H18.6024C18.6686 27.5344 18.9665 27.2034 19.4629 27.2034ZM36.7049 28.2624V25.4163H36.01V27.071C35.7783 26.7733 35.4474 26.6077 35.0171 26.6077C34.1236 26.6077 33.4286 27.3027 33.4286 28.2624C33.4286 29.2221 34.1236 29.9171 35.0171 29.9171C35.4805 29.9171 35.8114 29.7517 36.01 29.4538V29.8509H36.7049V28.2624ZM34.1568 28.2624C34.1568 27.6998 34.5207 27.2365 35.1165 27.2365C35.6791 27.2365 36.0762 27.6668 36.0762 28.2624C36.0762 28.825 35.6791 29.2883 35.1165 29.2883C34.5207 29.2551 34.1568 28.825 34.1568 28.2624ZM10.9245 28.2624V26.6739H10.2296V27.071C9.99786 26.7733 9.66696 26.6077 9.23671 26.6077C8.34319 26.6077 7.64822 27.3027 7.64822 28.2624C7.64822 29.2221 8.34319 29.9171 9.23671 29.9171C9.70013 29.9171 10.031 29.7517 10.2296 29.4538V29.8509H10.9245V28.2624ZM8.34319 28.2624C8.34319 27.6998 8.70726 27.2365 9.30289 27.2365C9.8655 27.2365 10.2627 27.6668 10.2627 28.2624C10.2627 28.825 9.8655 29.2883 9.30289 29.2883C8.70726 29.2551 8.34319 28.825 8.34319 28.2624Z" fill="black"/>
<path d="M14.0685 2.54819H24.4932V21.2795H14.0685V2.54819Z" fill="#FF5F00"/>
<path d="M14.7305 11.9139C14.7305 8.10814 16.5176 4.73246 19.2643 2.54819C17.2457 0.959698 14.6975 0 11.9176 0C5.33163 0 0.00354004 5.32809 0.00354004 11.9139C0.00354004 18.4996 5.33163 23.8278 11.9175 23.8278C14.6974 23.8278 17.2456 22.8681 19.2643 21.2795C16.5176 19.1284 14.7305 15.7197 14.7305 11.9139Z" fill="#EB001B"/>
<path d="M38.5582 11.9139C38.5582 18.4996 33.2301 23.8278 26.6443 23.8278C23.8644 23.8278 21.3162 22.8681 19.2974 21.2795C22.0773 19.0954 23.8313 15.7197 23.8313 11.9139C23.8313 8.10814 22.0442 4.73246 19.2974 2.54819C21.316 0.959698 23.8644 0 26.6443 0C33.2301 0 38.5583 5.36126 38.5583 11.9139H38.5582Z" fill="#F79E1B"/>
</g>
<defs>
<clipPath id="clip0_955_12617">
<rect width="38.6" height="30" fill="white"/>
</clipPath>
</defs>
</svg>
