<svg width="17" height="17" viewBox="0 0 17 17" fill="none" xmlns="http://www.w3.org/2000/svg">
<path d="M16.0463 3.419L13.1921 0.564834C12.8196 0.214934 12.3315 0.0141662 11.8206 0.000721623C11.3097 -0.0127229 10.8117 0.162094 10.4213 0.491918L1.04629 9.86692C0.709586 10.2065 0.499939 10.6515 0.452539 11.1273L0.00462221 15.4711C-0.00941012 15.6237 0.0103871 15.7774 0.0626026 15.9215C0.114818 16.0655 0.198166 16.1963 0.306706 16.3044C0.404039 16.401 0.519472 16.4773 0.646386 16.5292C0.7733 16.581 0.909199 16.6073 1.04629 16.6065H1.14004L5.48379 16.2107C5.95962 16.1633 6.40466 15.9536 6.74421 15.6169L16.1192 6.24192C16.4831 5.85751 16.6797 5.34453 16.6661 4.81539C16.6524 4.28625 16.4295 3.78411 16.0463 3.419ZM12.5046 6.89817L9.71295 4.1065L11.7442 2.02317L14.588 4.86692L12.5046 6.89817Z" fill="#727272"/>
</svg>
