<svg width="24" height="24" viewBox="0 0 24 24" fill="none" xmlns="http://www.w3.org/2000/svg">
<path d="M15.75 18.75C15.75 19.7446 15.3549 20.6984 14.6517 21.4017C13.9484 22.1049 12.9946 22.5 12 22.5C11.0055 22.5 10.0516 22.1049 9.34836 21.4017C8.6451 20.6984 8.25002 19.7446 8.25002 18.75M12.9013 1.25377L11.0688 1.25002C6.88877 1.24002 3.26002 4.63627 3.23127 8.75002V13.4875C3.23127 14.475 3.10627 15.4388 2.56752 16.26L2.20877 16.8075C1.66252 17.6375 2.25002 18.75 3.23127 18.75H20.7688C21.75 18.75 22.3363 17.6375 21.7913 16.8075L21.4325 16.26C20.895 15.4388 20.7688 14.4738 20.7688 13.4863V8.75127C20.7188 4.63627 17.0813 1.26377 12.9013 1.25377V1.25377Z" stroke="white" stroke-width="2.5" stroke-linecap="round" stroke-linejoin="round"/>
</svg>
