<svg width="30" height="29" viewBox="0 0 30 29" fill="none" xmlns="http://www.w3.org/2000/svg">
<path d="M12.6835 17.2C14.423 18.9647 16.5279 20.3272 18.8501 21.1917L21.9918 18.6917C22.0849 18.6276 22.1954 18.5932 22.3085 18.5932C22.4215 18.5932 22.532 18.6276 22.6251 18.6917L28.4585 22.45C28.6799 22.5832 28.8674 22.766 29.006 22.984C29.1447 23.2021 29.2308 23.4494 29.2574 23.7064C29.2841 23.9634 29.2507 24.2231 29.1597 24.465C29.0688 24.7068 28.9229 24.9242 28.7335 25.1L26.0001 27.8C25.6087 28.1868 25.1276 28.4706 24.5997 28.6262C24.0719 28.7818 23.5138 28.8043 22.9751 28.6917C17.602 27.582 12.6494 24.9829 8.68345 21.1917C4.80552 17.3627 2.12201 12.4907 0.958451 7.16669C0.843506 6.63639 0.867497 6.08539 1.0281 5.56709C1.1887 5.04879 1.48046 4.58076 1.87512 4.20836L4.70845 1.47503C4.88378 1.29485 5.09761 1.15667 5.33391 1.07084C5.57021 0.985011 5.82287 0.95375 6.07296 0.979401C6.32305 1.00505 6.56411 1.08695 6.77806 1.21896C6.99202 1.35097 7.17334 1.52968 7.30845 1.74169L11.1918 7.50003C11.2588 7.59045 11.2949 7.7 11.2949 7.81253C11.2949 7.92506 11.2588 8.03461 11.1918 8.12503L8.63345 11.2C9.52143 13.4758 10.9049 15.5254 12.6835 17.2Z" fill="#FF8500"/>
</svg>
