<svg width="21" height="21" viewBox="0 0 21 21" fill="none" xmlns="http://www.w3.org/2000/svg">
<path d="M13.5495 14.4375L15.2995 12.6875C15.5352 12.4548 15.8334 12.2954 16.1579 12.2288C16.4824 12.1623 16.8193 12.1913 17.1276 12.3125L19.2604 13.1641C19.572 13.2906 19.8391 13.5064 20.0282 13.7845C20.2173 14.0625 20.3198 14.3904 20.3229 14.7266V18.6328C20.3211 18.8616 20.273 19.0876 20.1816 19.2972C20.0901 19.5069 19.9572 19.6959 19.7907 19.8528C19.6243 20.0097 19.4279 20.1314 19.2132 20.2104C18.9985 20.2894 18.7701 20.3241 18.5417 20.3125C3.59634 19.3828 0.580717 6.72659 0.0104043 1.88284C-0.01607 1.64498 0.00811883 1.40421 0.0813794 1.17637C0.15464 0.948525 0.275312 0.738776 0.435457 0.560919C0.595601 0.383063 0.79159 0.241129 1.01053 0.144457C1.22947 0.0477841 1.46639 -0.00143684 1.70572 3.19289e-05H5.47915C5.81588 0.00102864 6.14461 0.102741 6.42306 0.292086C6.70151 0.481431 6.91694 0.749751 7.04165 1.06253L7.89322 3.19534C8.01841 3.50243 8.05036 3.8396 7.98505 4.16473C7.91975 4.48986 7.76009 4.78854 7.52603 5.02347L5.77603 6.77347C5.77603 6.77347 6.78384 13.5938 13.5495 14.4375Z" fill="#727272"/>
</svg>
