<svg width="80" height="80" viewBox="0 0 80 80" fill="none" xmlns="http://www.w3.org/2000/svg">
<circle cx="40" cy="40" r="40" fill="#F2F2F2"/>
<path d="M52.7835 28.2166C50.0489 25.4641 46.4396 23.752 42.5779 23.3754C38.7162 22.9987 34.8441 23.9813 31.6292 26.1535C28.4142 28.3258 26.0579 31.5516 24.9665 35.275C23.875 38.9983 24.1168 42.9858 25.6502 46.55C25.81 46.8812 25.8625 47.2541 25.8002 47.6166L24.3335 54.6666C24.277 54.9369 24.2886 55.217 24.3671 55.4818C24.4457 55.7465 24.5888 55.9876 24.7835 56.1833C24.9432 56.3418 25.1333 56.4664 25.3424 56.5494C25.5515 56.6325 25.7753 56.6724 26.0002 56.6666H26.3335L33.4669 55.2333C33.8294 55.1897 34.1971 55.2414 34.5335 55.3833C38.0977 56.9167 42.0852 57.1585 45.8085 56.067C49.5319 54.9756 52.7577 52.6193 54.93 49.4043C57.1022 46.1894 58.0847 42.3173 57.7081 38.4556C57.3315 34.5939 55.6194 30.9846 52.8669 28.25L52.7835 28.2166ZM34.3335 41.6666C34.0039 41.6666 33.6817 41.5689 33.4076 41.3857C33.1335 41.2026 32.9199 40.9423 32.7937 40.6378C32.6676 40.3332 32.6346 39.9981 32.6989 39.6748C32.7632 39.3515 32.9219 39.0545 33.155 38.8214C33.3881 38.5884 33.6851 38.4296 34.0084 38.3653C34.3317 38.301 34.6668 38.334 34.9713 38.4602C35.2759 38.5863 35.5362 38.7999 35.7193 39.074C35.9024 39.3481 36.0002 39.6703 36.0002 40C36.0002 40.442 35.8246 40.8659 35.512 41.1785C35.1995 41.491 34.7756 41.6666 34.3335 41.6666ZM41.0002 41.6666C40.6706 41.6666 40.3483 41.5689 40.0742 41.3857C39.8002 41.2026 39.5865 40.9423 39.4604 40.6378C39.3343 40.3332 39.3012 39.9981 39.3656 39.6748C39.4299 39.3515 39.5886 39.0545 39.8217 38.8214C40.0548 38.5884 40.3517 38.4296 40.675 38.3653C40.9983 38.301 41.3335 38.334 41.638 38.4602C41.9425 38.5863 42.2028 38.7999 42.386 39.074C42.5691 39.3481 42.6669 39.6703 42.6669 40C42.6669 40.442 42.4913 40.8659 42.1787 41.1785C41.8661 41.491 41.4422 41.6666 41.0002 41.6666ZM47.6669 41.6666C47.3372 41.6666 47.015 41.5689 46.7409 41.3857C46.4668 41.2026 46.2532 40.9423 46.1271 40.6378C46.0009 40.3332 45.9679 39.9981 46.0322 39.6748C46.0965 39.3515 46.2553 39.0545 46.4884 38.8214C46.7214 38.5884 47.0184 38.4296 47.3417 38.3653C47.665 38.301 48.0001 38.334 48.3047 38.4602C48.6092 38.5863 48.8695 38.7999 49.0526 39.074C49.2358 39.3481 49.3335 39.6703 49.3335 40C49.3335 40.442 49.1579 40.8659 48.8454 41.1785C48.5328 41.491 48.1089 41.6666 47.6669 41.6666Z" fill="#FF8500"/>
</svg>
