<svg width="38" height="36" viewBox="0 0 38 36" fill="none" xmlns="http://www.w3.org/2000/svg">
<path d="M36.7718 12.6766L25.3801 11.0342L20.2878 0.792305C20.1487 0.511888 19.9199 0.284884 19.6372 0.146901C18.9283 -0.200281 18.0669 0.0890376 17.7124 0.792305L12.62 11.0342L1.22838 12.6766C0.914314 12.7211 0.627167 12.868 0.40732 13.0906C0.141537 13.3616 -0.00492147 13.7262 0.000126282 14.1043C0.00517403 14.4823 0.161315 14.843 0.43424 15.1069L8.67626 23.0787L6.72904 34.3355C6.68338 34.5973 6.71259 34.8666 6.81335 35.1129C6.91412 35.3591 7.08242 35.5724 7.29916 35.7285C7.51589 35.8847 7.7724 35.9775 8.0396 35.9964C8.30679 36.0153 8.57398 35.9595 8.81086 35.8355L19.0001 30.5209L29.1893 35.8355C29.4675 35.9824 29.7905 36.0313 30.1001 35.9779C30.8808 35.8444 31.4057 35.1099 31.2711 34.3355L29.3239 23.0787L37.5659 15.1069C37.7903 14.8888 37.9383 14.6039 37.9832 14.2924C38.1043 13.5134 37.557 12.7924 36.7718 12.6766ZM25.8557 21.9571L27.4754 31.3176L19.0001 26.9022L10.5248 31.3221L12.1445 21.9615L5.28882 15.3295L14.7647 13.963L19.0001 5.44811L23.2355 13.963L32.7114 15.3295L25.8557 21.9571Z" fill="#FF8500"/>
</svg>
