<svg width="40" height="37" viewBox="0 0 40 37" fill="none" xmlns="http://www.w3.org/2000/svg">
<path d="M37.7936 12.8619L26.3879 11.2043L21.2893 0.867741C21.15 0.584733 20.9209 0.355632 20.6379 0.216374C19.9281 -0.134017 19.0656 0.157976 18.7107 0.867741L13.6121 11.2043L2.20645 12.8619C1.892 12.9068 1.6045 13.055 1.38438 13.2797C1.11827 13.5532 0.971635 13.9211 0.976689 14.3027C0.981743 14.6843 1.13808 15.0482 1.41134 15.3146L9.66348 23.3601L7.71388 34.7209C7.66816 34.9851 7.6974 35.2569 7.79829 35.5054C7.89918 35.7539 8.06769 35.9692 8.28469 36.1268C8.5017 36.2844 8.75852 36.3781 9.02604 36.3972C9.29356 36.4162 9.56108 36.36 9.79825 36.2347L20 30.8711L30.2018 36.2347C30.4803 36.383 30.8037 36.4324 31.1137 36.3785C31.8953 36.2437 32.4209 35.5025 32.2861 34.7209L30.3365 23.3601L38.5887 15.3146C38.8133 15.0945 38.9615 14.807 39.0065 14.4925C39.1277 13.7064 38.5797 12.9787 37.7936 12.8619Z" fill="#FF8500"/>
</svg>
