<svg width="20" height="19" viewBox="0 0 20 19" fill="none" xmlns="http://www.w3.org/2000/svg">
<path d="M10.0001 1.66675L10.6726 1.33478C10.5463 1.0788 10.2855 0.916748 10.0001 0.916748C9.71462 0.916748 9.4539 1.0788 9.32755 1.33478L10.0001 1.66675ZM12.5751 6.88341L11.9026 7.21538C12.0117 7.43652 12.2226 7.58986 12.4666 7.62553L12.5751 6.88341ZM18.3334 7.72508L18.8567 8.26235C19.0612 8.0632 19.1349 7.76526 19.0469 7.49376C18.9588 7.22225 18.7243 7.02425 18.4419 6.98297L18.3334 7.72508ZM14.1667 11.7834L13.6434 11.2461C13.4665 11.4185 13.3858 11.6668 13.4275 11.9102L14.1667 11.7834ZM15.1501 17.5167L14.801 18.1806C15.0537 18.3134 15.3599 18.2913 15.5909 18.1235C15.8219 17.9557 15.9376 17.6714 15.8893 17.39L15.1501 17.5167ZM10.0001 14.8084L10.3492 14.1446C10.1306 14.0297 9.86953 14.0297 9.65099 14.1446L10.0001 14.8084ZM4.85008 17.5167L4.11088 17.39C4.06261 17.6714 4.1783 17.9557 4.40928 18.1235C4.64026 18.2913 4.94648 18.3134 5.19917 18.1806L4.85008 17.5167ZM5.83342 11.7834L6.57262 11.9102C6.61437 11.6668 6.53362 11.4185 6.35671 11.2461L5.83342 11.7834ZM1.66675 7.72508L1.55828 6.98297C1.27586 7.02425 1.04135 7.22225 0.953313 7.49376C0.86528 7.76526 0.938985 8.0632 1.14345 8.26235L1.66675 7.72508ZM7.42508 6.88341L7.53355 7.62553C7.77757 7.58986 7.98846 7.43652 8.09761 7.21538L7.42508 6.88341ZM9.32755 1.99872L11.9026 7.21538L13.2476 6.55145L10.6726 1.33478L9.32755 1.99872ZM12.4666 7.62553L18.2249 8.4672L18.4419 6.98297L12.6836 6.1413L12.4666 7.62553ZM17.8101 7.18781L13.6434 11.2461L14.69 12.3207L18.8567 8.26235L17.8101 7.18781ZM13.4275 11.9102L14.4109 17.6435L15.8893 17.39L14.906 11.6566L13.4275 11.9102ZM15.4992 16.8529L10.3492 14.1446L9.65099 15.4722L14.801 18.1806L15.4992 16.8529ZM9.65099 14.1446L4.50099 16.8529L5.19917 18.1806L10.3492 15.4722L9.65099 14.1446ZM5.58929 17.6435L6.57262 11.9102L5.09421 11.6566L4.11088 17.39L5.58929 17.6435ZM6.35671 11.2461L2.19005 7.18781L1.14345 8.26235L5.31012 12.3207L6.35671 11.2461ZM1.77522 8.4672L7.53355 7.62553L7.31661 6.1413L1.55828 6.98297L1.77522 8.4672ZM8.09761 7.21538L10.6726 1.99872L9.32755 1.33478L6.75255 6.55145L8.09761 7.21538Z" fill="white"/>
</svg>
