<svg width="40" height="40" viewBox="0 0 40 40" fill="none" xmlns="http://www.w3.org/2000/svg">
<path d="M38.3045 33.4637C36.6488 32.1881 32.2407 28.665 28.1351 24.4313C25.4063 21.6156 24.2457 18.7969 22.177 16.6631C20.3032 14.7306 18.5988 13.6044 18.5988 13.6044L18.1188 14.0994L14.8763 10.7556L16.1288 9.46375C16.2305 9.35764 16.2873 9.21634 16.2873 9.06937C16.2873 8.9224 16.2305 8.78111 16.1288 8.675L15.8701 8.40812C15.8713 8.40687 19.5563 3.44812 24.2157 4.81937C24.757 4.98 25.2395 5.25312 25.3763 5.11375C25.5626 4.9225 24.8532 4.1875 24.4376 3.7625C18.5432 -2.26875 12.0413 4.4525 12.0382 4.45562L11.8088 4.21875C11.7595 4.16721 11.7002 4.1262 11.6346 4.09818C11.5689 4.07016 11.4983 4.05572 11.427 4.05572C11.3556 4.05572 11.285 4.07016 11.2194 4.09818C11.1537 4.1262 11.0944 4.16721 11.0451 4.21875L5.27071 10.1737C5.16902 10.2799 5.11226 10.4212 5.11226 10.5681C5.11226 10.7151 5.16902 10.8564 5.27071 10.9625C5.27071 10.9625 5.97759 12.1994 4.12384 12.4219C3.37759 12.5125 2.91009 12.6806 2.64509 12.9025C2.23143 13.3197 1.81913 13.7382 1.40821 14.1581C1.30653 14.2642 1.24976 14.4055 1.24976 14.5525C1.24976 14.6995 1.30653 14.8408 1.40821 14.9469L5.72946 19.4044C5.77887 19.4559 5.8382 19.497 5.90389 19.525C5.96957 19.553 6.04024 19.5675 6.11165 19.5675C6.18306 19.5675 6.25373 19.553 6.31941 19.525C6.38509 19.497 6.44443 19.4559 6.49384 19.4044C6.49384 19.4044 7.68509 18.1606 7.71071 18.1281C7.92509 17.8544 8.08884 17.3731 8.17509 16.6031C8.39259 14.6906 9.59009 15.4206 9.59009 15.4206C9.63946 15.4724 9.69881 15.5135 9.76456 15.5417C9.83031 15.5698 9.90107 15.5843 9.97259 15.5843C10.0441 15.5843 10.1149 15.5698 10.1806 15.5417C10.2464 15.5135 10.3057 15.4724 10.3551 15.4206L11.6076 14.1287L14.8488 17.4719L14.3688 17.9675C14.3688 17.9675 15.4613 19.7256 17.3351 21.6581C19.4032 23.7913 22.137 24.9881 24.8663 27.8038C28.9707 32.0375 32.3863 36.5831 33.6251 38.2912C34.0926 38.9344 34.167 38.875 34.7376 38.2856L36.5182 36.4494L38.2976 34.6138C38.8695 34.0225 38.9282 33.9463 38.3045 33.4637Z" fill="white"/>
<path d="M21.2549 14.1806C21.7913 14.6652 22.3118 15.1671 22.8155 15.6856C23.8105 16.7119 24.643 17.86 25.4774 19.0856L31.0662 13.4962C32.1025 13.7495 33.1866 13.7316 34.2141 13.4442C35.2415 13.1568 36.1775 12.6096 36.932 11.8553C37.6865 11.1011 38.2341 10.1652 38.5218 9.13787C38.8096 8.11056 38.8279 7.02644 38.5749 5.99L33.5024 11.0625L29.9024 10.0981L28.9374 6.49625L34.0087 1.42688C32.9725 1.17335 31.8885 1.19143 30.8614 1.47938C29.8343 1.76733 28.8989 2.31541 28.1455 3.07063C27.3909 3.82424 26.8432 4.75957 26.5552 5.78642C26.2672 6.81326 26.2486 7.897 26.5012 8.93313L21.2549 14.1806ZM16.5555 22.1431C16.0196 21.5896 15.5028 21.0178 15.0062 20.4287L8.93305 26.5025C7.89695 26.2493 6.81306 26.2674 5.78603 26.5553C4.759 26.8431 3.82352 27.3908 3.06992 28.1456C0.643047 30.5706 0.643672 34.5044 3.06992 36.93C3.64652 37.507 4.33117 37.9648 5.08475 38.2771C5.83833 38.5894 6.64607 38.7501 7.4618 38.7501C8.27753 38.7501 9.08527 38.5894 9.83885 38.2771C10.5924 37.9648 11.2771 37.507 11.8537 36.93C12.6083 36.1759 13.1561 35.2401 13.4441 34.2129C13.7321 33.1856 13.7507 32.1015 13.498 31.065L19.7505 24.8131C18.6005 23.9769 17.5212 23.1388 16.5555 22.1431ZM8.4268 36.1381L4.82617 35.1731L3.8618 31.5719L6.49805 28.9375L10.098 29.9006L11.0624 33.5025L8.4268 36.1381Z" fill="white"/>
</svg>
