<svg width="31" height="30" viewBox="0 0 31 30" fill="none" xmlns="http://www.w3.org/2000/svg">
<path fill-rule="evenodd" clip-rule="evenodd" d="M22.6542 17.9776C22.2807 17.7913 20.4499 16.8938 20.109 16.7688C19.7682 16.6451 19.52 16.5838 19.2706 16.9563C19.0225 17.3263 18.3095 18.1638 18.0927 18.4113C17.8746 18.6601 17.6578 18.6901 17.2856 18.5051C16.9134 18.3176 15.7129 17.9263 14.2906 16.6613C13.184 15.6763 12.4359 14.4601 12.2191 14.0876C12.0023 13.7163 12.1953 13.5151 12.382 13.3301C12.5499 13.1638 12.7542 12.8963 12.9409 12.6801C13.1276 12.4626 13.189 12.3076 13.3131 12.0588C13.4384 11.8113 13.3758 11.5951 13.2818 11.4088C13.189 11.2226 12.4447 9.3938 12.1339 8.65005C11.8319 7.9263 11.5248 8.02505 11.2968 8.01255C11.0787 8.00255 10.8306 8.00005 10.5825 8.00005C10.3343 8.00005 9.93081 8.09255 9.58994 8.46505C9.24783 8.8363 8.28665 9.73505 8.28665 11.5638C8.28665 13.3913 9.62002 15.1576 9.80674 15.4063C9.99346 15.6538 12.4321 19.4063 16.1678 21.0151C17.0576 21.3976 17.7506 21.6263 18.2907 21.7963C19.1829 22.08 19.995 22.0401 20.6366 21.9438C21.3509 21.8376 22.8397 21.045 23.1504 20.1776C23.46 19.3101 23.46 18.5663 23.3672 18.4113C23.2745 18.2563 23.0264 18.1638 22.6529 17.9776H22.6542ZM15.8595 27.2313H15.8545C13.6357 27.2317 11.4576 26.6368 9.54859 25.5088L9.09745 25.2413L4.40811 26.4688L5.66002 21.9088L5.36553 21.4413C4.12507 19.4717 3.4686 17.1923 3.47199 14.8663C3.4745 8.0538 9.03103 2.5113 15.8645 2.5113C19.1729 2.5113 22.2833 3.7988 24.6217 6.1338C25.775 7.27953 26.6892 8.64201 27.3113 10.1424C27.9334 11.6428 28.251 13.2514 28.2458 14.8751C28.2433 21.6875 22.6868 27.2313 15.8595 27.2313ZM26.4012 4.36005C25.0204 2.97371 23.3776 1.87447 21.5678 1.12605C19.7581 0.377631 17.8174 -0.00509531 15.8583 5.12219e-05C7.64503 5.12219e-05 0.958145 6.6688 0.955639 14.8651C0.951833 17.4735 1.63783 20.0368 2.94441 22.2963L0.830322 30L8.73027 27.9326C10.9156 29.1202 13.3646 29.7425 15.8533 29.7425H15.8595C24.0728 29.7425 30.7597 23.0738 30.7622 14.8763C30.7682 12.9229 30.3859 10.9877 29.6374 9.18259C28.8888 7.37751 27.7889 5.73839 26.4012 4.36005Z" fill="white"/>
</svg>
