<svg width="25" height="26" viewBox="0 0 25 26" fill="none" xmlns="http://www.w3.org/2000/svg">
<path fill-rule="evenodd" clip-rule="evenodd" d="M18.2279 15.0534C17.916 14.8974 16.3868 14.1459 16.1021 14.0412C15.8174 13.9376 15.6102 13.8863 15.4019 14.1982C15.1946 14.5081 14.5991 15.2093 14.418 15.4166C14.2359 15.6249 14.0548 15.65 13.7439 15.4951C13.4331 15.3381 12.4304 15.0105 11.2424 13.9512C10.3182 13.1265 9.6933 12.108 9.51222 11.7961C9.33115 11.4853 9.49234 11.3167 9.64829 11.1618C9.78855 11.0226 9.95916 10.7986 10.1151 10.6176C10.2711 10.4354 10.3224 10.3056 10.426 10.0974C10.5306 9.89012 10.4783 9.70904 10.3998 9.55309C10.3224 9.39713 9.70063 7.86584 9.44105 7.24307C9.1888 6.63704 8.93236 6.71973 8.74187 6.70926C8.55974 6.70088 8.3525 6.69879 8.14526 6.69879C7.93802 6.69879 7.60099 6.77625 7.31629 7.08816C7.03055 7.39902 6.22774 8.15158 6.22774 9.68288C6.22774 11.2131 7.34141 12.6921 7.49737 12.9004C7.65332 13.1076 9.69016 16.2497 12.8103 17.5968C13.5535 17.9171 14.1323 18.1086 14.5834 18.251C15.3286 18.4886 16.0069 18.4551 16.5428 18.3745C17.1394 18.2855 18.3828 17.6219 18.6424 16.8955C18.9009 16.1691 18.9009 15.5464 18.8235 15.4166C18.746 15.2868 18.5388 15.2093 18.2269 15.0534H18.2279ZM12.5528 22.802H12.5486C10.6954 22.8023 8.87623 22.3041 7.28175 21.3596L6.90494 21.1356L2.98827 22.1635L4.0339 18.3452L3.78793 17.9537C2.75186 16.3045 2.20357 14.3958 2.2064 12.4482C2.20849 6.7438 6.84947 2.10282 12.557 2.10282C15.3202 2.10282 17.9181 3.1809 19.8712 5.1361C20.8346 6.09547 21.5981 7.23633 22.1177 8.49269C22.6372 9.74905 22.9025 11.096 22.8982 12.4555C22.8961 18.1599 18.2551 22.802 12.5528 22.802ZM21.3575 3.65086C20.2043 2.49001 18.8321 1.56958 17.3205 0.942892C15.809 0.316207 14.1881 -0.00426652 12.5518 4.28904e-05C5.69184 4.28904e-05 0.106761 5.58408 0.104668 12.4472C0.101489 14.6313 0.674454 16.7777 1.76575 18.6697L0 25.1203L6.59827 23.3891C8.42354 24.3836 10.469 24.9047 12.5476 24.9047H12.5528C19.4128 24.9047 24.9978 19.3207 24.9999 12.4566C25.005 10.8209 24.6857 9.20046 24.0605 7.68899C23.4353 6.17751 22.5166 4.805 21.3575 3.65086Z" fill="#727272"/>
</svg>
